<svg id="Group_1739" data-name="Group 1739" xmlns="http://www.w3.org/2000/svg" width="157.021" height="111.944" viewBox="0 0 157.021 111.944">
  <g id="Group_1" data-name="Group 1" transform="translate(40.632)">
    <path id="Path_1" data-name="Path 1" d="M206.3,114.5Z" transform="translate(-165.786 -69.463)" fill="#8b7736"/>
    <path id="Path_2" data-name="Path 2" d="M184.4,110.3h0Z" transform="translate(-152.5 -66.915)" fill="#8b7736"/>
    <path id="Path_3" data-name="Path 3" d="M256.754,76.09a19.766,19.766,0,0,0-4.287-4.012c3.147-2.4,5.939-5.192,7.159-9.479-.236-.079-.59-.039-.826-.118h.079l.079-.511v-.157h-.039l-.039-.039a2.977,2.977,0,0,0-.59-.039l-.236-.039h-.039v-.629l-.865-.157c-.079-.039-.118-.039-.157-.079v-.865h-.2c-.393-.079-.472-.472-.747-.669-.354-.236-.511-.433-.865-.669a4.155,4.155,0,0,0-.236-.747l-1.062-.079a.865.865,0,0,1,.039.551,3.714,3.714,0,0,1,.551.039l.079.315.118-.039,1.573,1.18c-.865-.039-1.652-.079-2.517-.118a.768.768,0,0,1-.039.275c1.023.039,2.006.079,3.068.118v.551l-.039.039a.137.137,0,0,1,.039-.079c-1.1-.039-2.163-.118-3.225-.157a1.178,1.178,0,0,1-.157.393c2.4.118,4.248.236,4.287.236l.079.039.039.393h0l.039.275c.551.039.865.039.865.039v.039h0l-.079.433h0c-.157.079-3.147-.118-6.49-.315a2.543,2.543,0,0,1-.511.157c-.039.079-.079.118-.118.2h0c2.6.157,5.231.236,7.985.315a22.48,22.48,0,0,1-7.277,9.007c-5.153,0-9.873.039-15.065.039a19.138,19.138,0,0,0,2.635-1.967,2.9,2.9,0,0,1-.551-.157,24.46,24.46,0,0,1-2.478,2.006c.039-.039.079-.079.118-.079a.974.974,0,0,1-.551.315v.393a1.182,1.182,0,0,1,.433.236h-.039a23.021,23.021,0,0,1,3.383,2.871,1.118,1.118,0,0,1,.472-.157,15.5,15.5,0,0,0-3.776-2.95c4.366-.118,8.929.079,13.531.079a9.146,9.146,0,0,1,1.888.118,5.909,5.909,0,0,1,2.2,1.573c.787.787,1.455,1.455,1.967,2.085a36.525,36.525,0,0,1,3.107,5.231c-2.635.157-5,.315-7.473.433l.157.157a.2.2,0,0,1,.079.157c3.3-.2,6.215-.393,6.372-.315l.079.433a4.929,4.929,0,0,1-.865.079h-.039l-.039.275h.039l-.039.393-4.248.236a2.248,2.248,0,0,1,.275.315c1.652-.118,2.832-.2,2.871-.157l.079.472a13.572,13.572,0,0,1-2.557.275,1.708,1.708,0,0,1,.157.275c.708-.039,1.416-.079,2.085-.118a.985.985,0,0,1-.275.157l-.472.275c.039.039.039.079,0,.079h-.118l-.472.315h0l-.039.039c.079.079.2.118.275.2.551-.354.944-.9,1.731-1.062v-.9a7.26,7.26,0,0,0,.9-.157h0l.157-.039V82.5a3.677,3.677,0,0,0,.983-.157l-.118-.708a3.8,3.8,0,0,0,.708-.118,14.986,14.986,0,0,0-2.911-5.428" transform="translate(-183.986 -35.065)" fill="#8b7736"/>
    <path id="Path_4" data-name="Path 4" d="M202.439,131.639c-.039,0-.039,0-.039-.039l.039.039Z" transform="translate(-163.42 -79.837)" fill="#8b7736"/>
    <path id="Path_5" data-name="Path 5" d="M178.387,126.8l-.59.472c.315.039,9.6,2.832,12.783,3.815-.315,4.327-.708,9.479-1.023,13.885-.039.669-.118,1.927-.118,1.927l-.315.079-.039.039-1.18,1.573c.039-.944.079-1.77.118-2.793v-.039c.157-3.225.433-6.687.629-9.873a8.868,8.868,0,0,1,.079-1.849,2.365,2.365,0,0,1,.551-.944c.315-.511.629-.944.9-1.337a16.533,16.533,0,0,1-3.029-.669c-2.242-.629-7.513-2.4-9.794-2.95,3.068,1.1,8.653,3.422,12.193,4.051l-.275.315c-.236.59-.787.354-1.219.315-3.461-.511-8.417-2.793-11.367-3.815a68.849,68.849,0,0,0,6.49,3.068,54.306,54.306,0,0,0,5.585,1.455l-.354.472a.236.236,0,0,1-.157-.039.583.583,0,0,1-.275.039,13.779,13.779,0,0,1-3.147-.354,15.662,15.662,0,0,1-8.142-3.737c-.2-.157-.433-.354-.629-.511,3.3,4.209,8.653,5.625,10.581,6.018a4.244,4.244,0,0,0,.747.118c-.275,4.563-.787,14.357-.787,14.514l-.039.079-.393.039h0l-.275.039c-.039.511-.079.865-.079.865h-.039l-.433-.079h0c-.118-.275.551-9.676.865-14l-1.534-.708c-5.192-1.652-8.693-6.962-8.693-6.962.039.039.079.079.079.118a.947.947,0,0,1-.236-.315c-.039,0-.039.039-.079.039a.488.488,0,0,1-.511.039.2.2,0,0,0-.079.157h0s-3.579,5.467-8.889,7.041c-.433.2-.865.393-1.337.59.275,4.13.983,13.806.826,14.082l-.433.079a4.932,4.932,0,0,1-.079-.865v-.039l-.275-.039v.039l-.393-.079-.865-14.554c.315-.039.551-.118.865-.157a21.758,21.758,0,0,0,5.625-2.045c.236-.118.433-.236.669-.354a15.269,15.269,0,0,0,4.169-3.54,4.485,4.485,0,0,1-.433.433c-2.4,2.36-6.411,3.776-10.974,4.091a2.223,2.223,0,0,1-.511,0c-.157,0-.275.039-.433.039l-.354-.472-.236-.315v-.039a.137.137,0,0,1-.039-.079c1.062-.2,1.259-.236,1.573-.275,4.287-.747,7.749-2.557,10.62-3.894a38.229,38.229,0,0,0-4.209,1.455,39.412,39.412,0,0,1-7.906,2.2c-.472.079-.629.079-.944-.433,3.54-.747,9.2-2.911,12.429-3.973a46.826,46.826,0,0,0-5.467,1.455c-2.124.59-4.209,1.337-6.411,1.927a1.362,1.362,0,0,1-1.3-.59c3.107-1.062,7.08-2.163,10.305-3.147a11.736,11.736,0,0,1,2.478-.551l-.079-.079A.474.474,0,0,1,173,126.8l-13.1,3.855,1.416,16.638c.118,0,.59.039.747.039.315.787,1.1,1.141,1.259,2.085h.9a6.187,6.187,0,0,0,.157.9h0l.039.157h.629a2.583,2.583,0,0,0,.157.983l.708-.118a3.8,3.8,0,0,0,.118.708,14.347,14.347,0,0,0,5.507-2.832,22.019,22.019,0,0,0,4.091-4.248c2.4,3.147,5.231,5.861,9.558,7.08.079-.2.079-.59.157-.787v.079l.551.079h.2v-.039l.039-.039c0-.2.039-.393.039-.59l.039-.236a.039.039,0,0,1,.039-.039h.629l.157-.865c.039-.079.039-.118.079-.157h.865v-.2c.118-.393.472-.472.669-.747.236-.315.433-.511.669-.865a5.974,5.974,0,0,0,.787-.236l1.141-16.756Zm-15.3,21.712-.275-.472c-.039.039-.039.079-.039,0v-.118l-.275-.472v0l-.393-.59v.236a.669.669,0,0,0-.039-.275h-.354l-.9-11.289h0c-.079-1.219-.2-2.478-.275-3.737.275.393.708.9,1.062,1.416.275.433.551.59.669.983a8.981,8.981,0,0,1,.2,1.888c.2,3.973.629,8.811.826,12.744a.986.986,0,0,1-.2-.315m1.062.472-.472.079a24.167,24.167,0,0,1-.354-3.5c-.275-3.7-.59-7.513-.826-11.249a32.661,32.661,0,0,0,7.67-1.416,22.926,22.926,0,0,1-6.844,2.163c.079,4.327.944,13.806.826,13.924m11.131-6.293a9.145,9.145,0,0,1-.118,1.888,5.514,5.514,0,0,1-1.573,2.163,17.757,17.757,0,0,1-2.124,1.927,36.518,36.518,0,0,1-5.271,3.068c-.315-5-.59-9.086-.787-14.514a17.477,17.477,0,0,0,9.991-7.906c.118,4.327-.118,8.85-.118,13.374m9.676,9.086a22.614,22.614,0,0,1-9.086-7.2c0-5.113-.039-9.794-.039-14.908a17.291,17.291,0,0,0,9.951,7.631c-.472,4.877-.708,9.479-.826,14.475m2.635-2.635h-.551L187,149.1a.039.039,0,0,1,.039.039c.157-4.681.511-9.243.708-14a29.672,29.672,0,0,1-6.844-2.163,5.26,5.26,0,0,1,1.495.393c1.731.472,3.737,1.259,5.939,1.1-.354,5-.551,9.558-.747,14.671" transform="translate(-137.637 -76.925)" fill="#8b7736"/>
    <path id="Path_6" data-name="Path 6" d="M163.1,99.839v0Z" transform="translate(-139.578 -60.545)" fill="#8b7736"/>
    <path id="Path_7" data-name="Path 7" d="M164.489,98.877a2.341,2.341,0,0,1-.865-.669c-.157-.118-.315-.275-.472-.393a.7.7,0,0,1-.2-.315c.039.393-.2.393-.039.669l.433.354c.039.079.079.118.118.2a2.108,2.108,0,0,0,.9.826h.039c0,.079-.315,1.062-.708,2.478.157.118.354.157.551.275h0l.826-2.714.079-.236c-.236-.157-.433-.315-.669-.472" transform="translate(-139.433 -59.15)" fill="#8b7736"/>
    <path id="Path_8" data-name="Path 8" d="M165.123,84.73c.157-.118.275-.275.433-.393V84.3c0-.039.039-.039.039-.079l-1.1-3.619a4.084,4.084,0,0,1-.393.157c.157.511.315,1.023.433,1.495a9.461,9.461,0,0,1,.59,2.478" transform="translate(-140.185 -48.897)" fill="#8b7736"/>
    <path id="Path_9" data-name="Path 9" d="M126.822,75.985a.569.569,0,0,1-.275-.393c-.079-.039-.157-.118-.236-.157h0a21.14,21.14,0,0,1-3.933-3.5c-.118.079-.275.118-.393.2h-.039a16.887,16.887,0,0,0,4.287,3.5c-4.366.118-8.929-.079-13.531-.079a9.146,9.146,0,0,1-1.888-.118,5.909,5.909,0,0,1-2.2-1.573,22.854,22.854,0,0,1-1.967-2.085,36.534,36.534,0,0,1-3.107-5.231c2.753-.157,5.271-.315,7.827-.472h-.039a1.817,1.817,0,0,1-.275-.275,64.619,64.619,0,0,1-6.687.315l-.079-.433c.039,0,.354-.039.826-.079h.039l.039-.275h-.039l.039-.393,4.759-.275a1.97,1.97,0,0,1-.275-.315c-1.927.118-3.343.236-3.383.2l-.079-.472a18.693,18.693,0,0,1,2.989-.315,1.665,1.665,0,0,1-.2-.275c-.865.039-1.691.118-2.478.157a.986.986,0,0,1,.275-.157l.472-.275c-.039-.039-.079-.039,0-.079h.118l.511-.275h0l.433-.275c-.039-.039-.039-.079-.079-.079h.079a2.181,2.181,0,0,0-.236-.315.122.122,0,0,0-.039-.079v.315c-.787.315-1.18,1.062-2.124,1.259v.9a7.26,7.26,0,0,0-.9.157h0l-.157.039V65.4a2.583,2.583,0,0,0-.983.157l.118.708a3.8,3.8,0,0,0-.708.118,14.062,14.062,0,0,0,2.871,5.428,20.776,20.776,0,0,0,4.287,4.012c-3.147,2.4-5.9,5.192-7.159,9.479.236.079.59.039.787.157h-.079l-.079.511v.039l-.039.118h.039l.039.039a2.976,2.976,0,0,0,.59.039l.236.039h.039v.629l.865.157c.039.039.118.039.157.079v.826h.2c.393.079.472.472.747.669.354.236.551.433.865.669a4.155,4.155,0,0,0,.236.747l.393.039c.039-.039,0-.079.039-.079.039-.118.079-.275.118-.393l-.079-.079h-.039L108.3,89.4c-.039-.039-.039-.118-.079-.2l-.039-.039-1.573-1.18c.669,0,1.3.039,1.927.079.039,0,.039-.039.079-.039a.236.236,0,0,1,.039-.157c0-.039.039-.039.039-.079-.826-.039-1.691-.079-2.557-.118v-.433l.039-.079a.137.137,0,0,1-.039.079l2.832.118c.079-.118.157-.275.236-.393-2.242-.118-3.933-.2-3.973-.2l-.079-.039-.039-.393h0l-.039-.275a4.4,4.4,0,0,1-.865-.079v-.039h0l.079-.433h0c.157-.039,2.753.079,5.861.275.118-.118.275-.236.393-.354-2.321-.118-4.681-.2-7.119-.275a22.361,22.361,0,0,1,7.277-8.968c5.153,0,9.873-.039,15.026-.039a21.491,21.491,0,0,0-2.793,2.085.543.543,0,0,1,.157.118.823.823,0,0,1,.157.236h.039a20.812,20.812,0,0,1,2.871-2.36c-.039.039-.079.079-.118.079a2.525,2.525,0,0,1,.787-.315" transform="translate(-103.3 -37.674)" fill="#8b7736"/>
    <path id="Path_10" data-name="Path 10" d="M176.5,123.339v0Z" transform="translate(-147.708 -74.801)" fill="#8b7736"/>
    <path id="Path_11" data-name="Path 11" d="M137.51,106.394a.144.144,0,0,0-.118.039h.039s-6.451,1.337-11.328-1.259c-.433-.2-.9-.315-1.337-.511-2.753,3.107-9.165,10.423-9.44,10.541l-.393-.236a4.234,4.234,0,0,1,.551-.669h0l-.157-.236-.039.039-.236-.315,9.794-10.9a7.381,7.381,0,0,0,.708.472,21.059,21.059,0,0,0,5.428,2.478,4.15,4.15,0,0,0,.747.2,14.7,14.7,0,0,0,5.467.393h-.629c-3.383-.039-7.237-1.809-10.7-4.8a3,3,0,0,1-.354-.354c-.118-.118-.236-.157-.354-.275l.079-.59.039-.393.039-.118c.865.59,1.062.747,1.337.9,3.54,2.478,7.316,3.619,10.305,4.681a37.192,37.192,0,0,0-3.973-1.927,40.675,40.675,0,0,1-7.159-3.973c-.354-.275-.511-.393-.393-.983,3.029,1.927,8.575,4.366,11.6,5.9a53.569,53.569,0,0,0-4.917-2.832c-1.927-1.062-3.933-2.006-5.939-3.107a1.317,1.317,0,0,1-.472-1.337c2.95,1.416,6.529,3.422,9.519,5a15.927,15.927,0,0,1,2.006,1.219,2.976,2.976,0,0,0,.039-.59L125.592,96.6l-10.856,12.744a6.53,6.53,0,0,0,.511.551c-.354.787-.039,1.573-.59,2.36.236.2.433.433.629.629-.236.236-.315.472-.551.747h0l-.079.118.433.433a8.173,8.173,0,0,0-.59.787l.59.433a5.628,5.628,0,0,0-.433.59,14.3,14.3,0,0,0,5.9,1.849,21.2,21.2,0,0,0,5.9-.157c-.551,3.894-.511,7.788,1.691,11.721a4.083,4.083,0,0,0,.669-.472l-.079.079.315.433a.039.039,0,0,0,.039.039l.079.118.039-.039h.039c.157-.118.315-.275.472-.393l.2-.157a.039.039,0,0,0,.039-.039l.433.433.747-.511c.039-.039.118-.039.157-.079l.59.59.039.039.118-.118c.354-.2.669,0,.983-.039a9.447,9.447,0,0,1,1.1-.118,6.367,6.367,0,0,0,.708.393l.039-.039a2.177,2.177,0,0,1-.826-.747l-1.573.236c.393-.354.747-.708,1.141-1.062l-.118-.236c-.551.472-1.062.944-1.613,1.455l-.393-.393h0l-.039-.079a.137.137,0,0,0,.039.079c.629-.59,1.259-1.141,1.888-1.691a2.078,2.078,0,0,1-.039-.511c-1.573,1.416-2.753,2.439-2.793,2.478l-.039.039-.315-.236h0l-.236-.2c-.393.354-.629.551-.669.59l-.039-.039h0l-.236-.354h0c.079-.157,2.006-1.849,4.327-3.855,0-.2.039-.393.039-.551-1.731,1.534-3.461,3.107-5.231,4.8A22.117,22.117,0,0,1,126.89,117.8c3.658-3.619,6.962-6.962,10.62-10.581a18.862,18.862,0,0,0-.511,3.815c.157-.039.354-.118.511-.157a20.558,20.558,0,0,1,.354-3.894v.157a1.388,1.388,0,0,1,.118-.551H137.9a.434.434,0,0,1-.393-.2m-22.342,5.192.118-.551c-.039.039-.079,0-.039-.039l.079-.079.118-.551-.118.118.118-.118.157-.708a.858.858,0,0,0-.157.2c.039-.079.118-.118.2-.2h0l-.236-.236,7.434-8.614v.039c.826-.944,1.613-1.927,2.439-2.832-.118.472-.157,1.141-.275,1.731-.118.511,0,.787-.236,1.18a7.67,7.67,0,0,1-1.18,1.455c-2.675,2.95-5.861,6.687-8.535,9.6.039-.157.079-.275.118-.393m0,.826a21.6,21.6,0,0,1,2.281-2.714c2.439-2.793,4.956-5.7,7.473-8.535a31.025,31.025,0,0,0,6.451,4.366A22.294,22.294,0,0,1,125,102.264c-3.068,3.107-9.2,10.423-9.4,10.423Zm12.744,3.658a9.087,9.087,0,0,1-1.416,1.219,6.065,6.065,0,0,1-2.675.433,20.929,20.929,0,0,1-2.871-.118,35.873,35.873,0,0,1-5.9-1.534c3.343-3.737,6.057-6.844,9.794-10.817a17.571,17.571,0,0,0,12.7,1.377c-2.989,3.186-6.372,6.215-9.637,9.44" transform="translate(-110.095 -58.604)" fill="#8b7736"/>
    <path id="Path_12" data-name="Path 12" d="M178.011,122H175.1c.118.157.079.315.315.354l.551-.039c.079.039.157.039.236.079a2.618,2.618,0,0,0,1.219-.039h.039c.039.039.59,1.062,1.377,2.517.079-.039.2-.079.275-.118.118-.079.2-.039.315-.079Z" transform="translate(-146.858 -74.013)" fill="#8b7736"/>
    <path id="Path_13" data-name="Path 13" d="M227.939,118.1h0Z" transform="translate(-178.89 -71.647)" fill="#8b7736"/>
    <path id="Path_14" data-name="Path 14" d="M249.422,114.112v-.039c-.118-.157-.275-.315-.393-.472l-.157-.2a.039.039,0,0,0-.039-.039l.472-.433-.511-.747c-.039-.039-.039-.118-.079-.157l.59-.59-.118-.118c-.2-.354,0-.669-.039-.983a9.454,9.454,0,0,1-.118-1.1,6.373,6.373,0,0,0,.393-.708L238.251,95.9l-11.879,6.293a.5.5,0,0,1,.039.236c0,.551.118,1.18.118,1.77,0-.039.039-.039.039-.079a2.02,2.02,0,0,0-.079-1.219v-.039c.157-.157,8.811-4.72,11.761-6.293,2.871,3.3,6.254,7.2,9.2,10.541.433.511,1.3,1.455,1.3,1.455l-.157.275v.079l.275,1.967c-.669-.669-1.219-1.3-1.927-2.045V108.8c-2.163-2.4-4.445-5.035-6.608-7.395a13.039,13.039,0,0,1-1.3-1.377,2.807,2.807,0,0,1-.275-1.062c-.118-.59-.236-1.141-.315-1.573a13.569,13.569,0,0,1-2.6,1.613c-2.045,1.1-7.041,3.579-9.047,4.759,2.95-1.377,8.535-3.658,11.525-5.664l.039.393c.275.59-.275.826-.629,1.062-2.832,2.085-7.945,3.933-10.777,5.271a60.031,60.031,0,0,0,6.765-2.4c2.911-1.495,5-2.871,5-2.871l.079.59a.543.543,0,0,1-.157.118,2.4,2.4,0,0,1-.157.236,14.985,14.985,0,0,1-2.517,1.967,15.9,15.9,0,0,1-8.417,3.068c-.275,0-.551.039-.826.039,5.349.669,10.148-2.085,11.761-3.147.2-.157.393-.275.59-.433,3.068,3.422,9.676,10.7,9.794,10.817l.039.079-.275.315h0l-.2.236c.354.393.551.629.59.669l-.039.039h0l-.393.236h0c-.275-.118-6.49-7.2-9.4-10.5-.511.2-1.062.393-1.573.551-4.838,2.439-11.131,1.141-11.131,1.141h.157a1.163,1.163,0,0,1-.393-.079,1.849,1.849,0,0,1-.354.472c0,.039.039.118.039.157v-.039a20.613,20.613,0,0,1,.315,4.681c.157.079.354.118.511.2a18.255,18.255,0,0,0-.59-5c3.186,2.95,6.254,6.333,9.479,9.519a12.569,12.569,0,0,1,1.259,1.416,5.883,5.883,0,0,1,.433,2.635,20.335,20.335,0,0,1-.118,2.832,36.441,36.441,0,0,1-1.534,5.861c-2.045-1.77-3.894-3.383-5.782-5.074v.433c2.557,2.2,4.8,4.169,4.838,4.327l-.236.393a3.41,3.41,0,0,1-.669-.511l-.039-.039-.2.157v.039l-.315.236-3.54-3.147c0,.118-.039.275-.039.433,1.455,1.259,2.517,2.163,2.517,2.242l-.275.393a14.862,14.862,0,0,1-2.321-1.888c0,.118-.039.236-.039.354.629.551,1.259,1.1,1.849,1.613a.741.741,0,0,1-.315-.079l-.551-.118c.039.039,0,.079-.039.039s-.079-.039-.079-.079l-.551-.118.118.118-.118-.118-.315-.079a.569.569,0,0,1-.079.275c.787.354,1.613.039,2.4.59l.629-.629a8.427,8.427,0,0,0,.747.511h0l.118.079.433-.433a3.422,3.422,0,0,0,.787.59l.433-.59a5.628,5.628,0,0,0,.59.433,13.961,13.961,0,0,0,1.849-5.861,20.958,20.958,0,0,0-.157-5.861c3.933.511,7.867.472,11.8-1.691-.079-.236-.354-.433-.472-.669l.079.079.433-.315a.039.039,0,0,0,.039-.039l.118-.079Zm-.826-2.321-.039.039a.039.039,0,0,0,.039-.039c-3.225-3.422-6.254-6.883-9.479-10.384a30.584,30.584,0,0,1-6.372,3.265,5.454,5.454,0,0,1,1.337-.787,17.012,17.012,0,0,0,5-3.383c3.343,3.776,6.451,7.159,9.951,10.9l-.433.393Zm.393,3.343a22.987,22.987,0,0,1-11.564,1.259c-3.658-3.619-7-6.883-10.659-10.5a17.441,17.441,0,0,0,12.469-1.573c3.186,3.776,6.293,7.2,9.755,10.817" transform="translate(-177.677 -58.179)" fill="#8b7736"/>
    <path id="Path_15" data-name="Path 15" d="M220.9,68.2v0Z" transform="translate(-174.643 -41.374)" fill="#8b7736"/>
    <path id="Path_16" data-name="Path 16" d="M215.223,64.547c-.079-.157-.039-.275-.275-.315l-.551.039c-.079-.039-.157-.039-.236-.079a2.619,2.619,0,0,0-1.219.039H212.9c-.039-.079-.629-1.1-1.573-2.832-.118.2-.433.079-.629.157l1.534,2.832c1.023.039,2.006.118,2.989.157" transform="translate(-168.455 -37.249)" fill="#8b7736"/>
    <path id="Path_17" data-name="Path 17" d="M245.714,27.517a5.009,5.009,0,0,0,.511-.747h0l.079-.118-.433-.433a4.541,4.541,0,0,0,.59-.787l-.59-.433a5.637,5.637,0,0,0,.433-.59,14.3,14.3,0,0,0-5.9-1.849,21.2,21.2,0,0,0-5.9.157c.551-3.894.511-7.827-1.691-11.721-.236.079-.433.354-.669.472l.079-.079-.315-.433-.039-.039-.079-.118-.039.039h-.039c-.157.118-.315.275-.472.393l-.2.157-.039.039L230.57,11l-.747.511c-.039,0-.118.039-.157.039l-.59-.59v-.039l-.118.118c-.354.2-.669,0-.983.039-.2.039-.354.039-.551.079a.039.039,0,0,0,.039.039.612.612,0,0,1,.236.315l.826-.118c-.275.236-.511.472-.787.708v.354c.433-.393.865-.787,1.3-1.219l.393.393h0l.039.079a.137.137,0,0,0-.039-.079c-.511.511-1.062.983-1.613,1.455v.079a.959.959,0,0,1,0,.472c1.495-1.3,2.517-2.242,2.6-2.281l.039-.039.315.275h0l.2.157c.393-.354.629-.551.669-.59l.039.039h0l.236.393h0c-.039.118-1.849,1.731-4.012,3.619,0,.157.039.315.039.472h0c1.613-1.455,3.186-2.911,4.838-4.445a21.714,21.714,0,0,1,1.259,11.446c-3.658,3.619-6.962,6.962-10.62,10.581a18.486,18.486,0,0,0,.511-4.091.865.865,0,0,1-.551.079,20.361,20.361,0,0,1-.354,4.209V33.3a.839.839,0,0,1-.118.472h.236a.465.465,0,0,1,.629-.354c2.911-3.029,6.175-5.979,9.283-9.047a10.019,10.019,0,0,1,1.455-1.259,6.065,6.065,0,0,1,2.675-.433,20.93,20.93,0,0,1,2.871.118,35.874,35.874,0,0,1,5.9,1.534c-3.343,3.737-6.057,6.844-9.794,10.817a17.638,17.638,0,0,0-12.076-1.534.357.357,0,0,1,.118.275c1.77-.275,6.726-.747,10.659,1.377.433.2.9.315,1.337.511,2.753-3.107,9.165-10.423,9.44-10.541l.393.236c0,.039-.236.275-.511.669h-.039l.157.2h.039l.236.315-9.794,10.974a7.381,7.381,0,0,0-.708-.472,21.059,21.059,0,0,0-5.428-2.478c-.236-.079-.472-.118-.747-.2a14.966,14.966,0,0,0-5.035-.433v.039h.157c3.383.039,7.237,1.849,10.7,4.8a3.006,3.006,0,0,1,.354.354c.118.118.236.157.354.275l-.118.59-.039.393v.118c-.865-.59-1.062-.747-1.337-.9-3.461-2.439-7.119-3.54-10.069-4.6v.079c.9.511,2.95,1.416,3.776,1.77a40.676,40.676,0,0,1,7.159,3.973.728.728,0,0,1,.354.944c-2.95-1.888-8.3-4.248-11.367-5.782v.079c.983.708,3.894,2.242,4.641,2.635,1.927,1.062,3.933,2.006,5.939,3.107a1.288,1.288,0,0,1,.472,1.337c-2.95-1.416-6.529-3.422-9.519-5a10.625,10.625,0,0,1-1.691-1.023c-.039.157-.039.354-.079.551l11.407,6.136,10.856-12.744a3.4,3.4,0,0,0-.511-.551c.354-.787.039-1.573.59-2.36Zm-16.048,7.434a22.294,22.294,0,0,1,6.372,3.265c3.068-3.107,9.2-10.423,9.4-10.423l.393.275a21.6,21.6,0,0,1-2.281,2.714c-2.439,2.832-4.956,5.743-7.473,8.535a31.455,31.455,0,0,0-6.411-4.366m16.088-5.467-.079.079-.118.551.118-.118-.118.118-.157.708a.857.857,0,0,0,.157-.2c-.039.079-.118.118-.157.2h0l.236.236L238.2,39.671h0c-.826.944-1.652,1.888-2.439,2.832.118-.472.157-1.141.275-1.731.118-.511,0-.826.236-1.18a6.652,6.652,0,0,1,1.219-1.455c2.675-2.95,5.861-6.687,8.535-9.6a.741.741,0,0,1-.079.315l-.118.511c-.079.039-.039.079-.079.118" transform="translate(-175.857 -6.552)" fill="#8b7736"/>
    <path id="Path_18" data-name="Path 18" d="M171.3,71.439a.039.039,0,0,0,.039-.039l-.039.039Z" transform="translate(-144.553 -43.316)" fill="#8b7736"/>
    <path id="Path_19" data-name="Path 19" d="M141.324,30.357c-.079,0-.157-.039-.275-.039a1.6,1.6,0,0,1-.2.354,9.309,9.309,0,0,1-1.455,2.2,3.422,3.422,0,0,0-2.439.433h0l-.039.039a1.322,1.322,0,0,1-.2-.551v.039a20.558,20.558,0,0,1-.354-3.894,4.909,4.909,0,0,1-.472-.315,16.094,16.094,0,0,0,.59,4.287c-3.186-2.95-6.254-6.333-9.479-9.558a8.147,8.147,0,0,1-1.259-1.416,5.884,5.884,0,0,1-.433-2.635,20.333,20.333,0,0,1,.118-2.832,36.44,36.44,0,0,1,1.534-5.861c1.927,1.691,3.737,3.265,5.546,4.877,0-.157.039-.275.039-.393-2.439-2.124-4.6-4.012-4.681-4.169l.236-.354c.039,0,.275.236.669.511l.039.039.236-.2v-.039l.315-.236,3.343,2.911v-.433c-1.337-1.141-2.242-1.927-2.281-2.006l.275-.393a10.425,10.425,0,0,1,2.006,1.613c0-.118.039-.2.039-.315h0c-.551-.472-1.062-.944-1.534-1.377a.741.741,0,0,1,.315.079l.551.118c-.039-.039,0-.079.039-.039l.079.079.551.118-.118-.118.118.118.157.039a.144.144,0,0,1,.039-.118c.039-.079.079-.118.079-.157-.747-.275-1.534-.039-2.281-.551l-.629.629a8.423,8.423,0,0,0-.747-.511h-.039l-.118-.079-.472.433a4.539,4.539,0,0,0-.787-.59l-.433.59a5.628,5.628,0,0,0-.59-.433,13.96,13.96,0,0,0-1.849,5.861,20.956,20.956,0,0,0,.157,5.861c-3.933-.551-7.867-.511-11.839,1.691.079.236.354.433.472.669l-.079-.079-.433.315-.039.039-.118.079.039.039v.039c.118.157.275.315.393.472l.157.2.039.039-.433.433.511.747c.039.079.039.118.079.157l-.59.59h-.039l.118.118c.2.354,0,.669.039.983.079.393.079.669.157,1.1a6.366,6.366,0,0,0-.393.708l11.171,12.665L136.6,36.532c0-.039-.039-.118-.039-.157a2.3,2.3,0,0,1,.157-.747,2.24,2.24,0,0,1-.157-1.023.585.585,0,0,1-.2-.826c-.118.039-.236.039-.275.236l.039.551c-.039.079-.039.157-.079.2a2.02,2.02,0,0,0,.079,1.219.039.039,0,0,0,.039.039c-.157.118-8.811,4.72-11.761,6.293-2.871-3.3-6.254-7.2-9.165-10.541-.433-.511-1.3-1.455-1.3-1.455l.157-.275v-.079L113.829,28c.669.708,1.219,1.3,1.927,2.085h0c2.163,2.4,4.445,5.035,6.608,7.395a9.3,9.3,0,0,1,1.259,1.377,3.8,3.8,0,0,1,.275,1.062c.118.59.236,1.1.315,1.573a13.524,13.524,0,0,1,2.6-1.652c2.045-1.1,7.041-3.579,9.047-4.759-2.95,1.377-8.535,3.658-11.525,5.7l-.039-.433c-.275-.59.275-.826.629-1.062,2.832-2.085,7.945-3.933,10.777-5.271a60.375,60.375,0,0,0-6.8,2.4c-2.911,1.495-5,2.871-5,2.871l-.079-.59a.543.543,0,0,1,.157-.118,2.412,2.412,0,0,1,.157-.236,13.555,13.555,0,0,1,2.517-1.967,15.577,15.577,0,0,1,8.417-3.068c.275,0,.551-.039.826-.039-5.349-.669-10.148,2.085-11.761,3.147a6,6,0,0,0-.629.433c-3.068-3.422-9.676-10.7-9.794-10.817l-.039-.079.236-.315h0l.157-.2c-.354-.393-.551-.629-.59-.669l.039-.039h0l.354-.236h0c.275.118,6.49,7.2,9.4,10.463.511-.2,1.062-.393,1.573-.551,4.838-2.439,11.131-1.141,11.131-1.141h-.157a1.14,1.14,0,0,1,.708.2h0a.3.3,0,0,1,.2-.039h.708a8.374,8.374,0,0,1,2.242-.157l1.652-3.029c.118.118.079.118,0,.118m-27.18-3.3.079-.039c-.079.039-.079.079-.079.039,3.225,3.422,6.254,6.923,9.479,10.384A30.585,30.585,0,0,1,130,34.172a5.453,5.453,0,0,1-1.337.787c-1.573.865-3.579,1.731-5,3.383-3.343-3.776-6.49-7.159-9.951-10.9l.433-.393Zm9.361,7.513c-3.186-3.776-6.293-7.2-9.755-10.817a22.987,22.987,0,0,1,11.564-1.259c3.658,3.619,7,6.883,10.659,10.5a17.417,17.417,0,0,0-12.469,1.573" transform="translate(-109.306 -6.127)" fill="#8b7736"/>
    <path id="Path_20" data-name="Path 20" d="M196.1,59.2a.039.039,0,0,1,.039.039c0-.039,0-.039-.039-.039Z" transform="translate(-159.598 -35.914)" fill="#8b7736"/>
    <path id="Path_21" data-name="Path 21" d="M177.3,25.331h0l13.531-3.973L189.415,4.72c-.118,0-.59-.039-.747-.039-.315-.787-1.1-1.141-1.259-2.085h-.9a7.262,7.262,0,0,0-.157-.9h0l-.079-.118h-.629a3.677,3.677,0,0,0-.157-.983l-.708.118A3.794,3.794,0,0,0,184.656,0a14.346,14.346,0,0,0-5.507,2.832A20.759,20.759,0,0,0,175.1,7.08c-2.4-3.147-5.231-5.861-9.558-7.08-.079.236-.079.551-.157.787V.708l-.511-.079h-.157V.669h-.039a2.976,2.976,0,0,0-.039.59l-.039.236v.079h-.629l-.157.865c-.039.079-.039.118-.079.157h-.865v.2c-.079.393-.472.472-.669.747-.236.315-.433.511-.669.865a5.974,5.974,0,0,0-.787.236L159.6,21.4l13.255,3.973.433.157.039-.039c.039-.157.472-1.849,1.849-1.888a8.646,8.646,0,0,1,2.124,1.731M165.7.236a22.615,22.615,0,0,1,9.086,7.2c0,5.113.039,9.794.039,14.908a17.328,17.328,0,0,0-9.912-7.631c.393-4.917.669-9.479.787-14.475m-2.635,2.635h.551l.079.039a.137.137,0,0,1-.079-.039c-.157,4.681-.511,9.243-.708,14a31.7,31.7,0,0,1,6.844,2.163,5.26,5.26,0,0,1-1.495-.393c-1.731-.472-3.737-1.259-5.939-1.1.315-5.035.511-9.6.747-14.672m11.171,20.336-.354.433a.86.86,0,0,0-.2.118,2.108,2.108,0,0,0-.826.9V24.7c-.236-.039-9.6-2.832-12.783-3.815.315-4.366.708-9.479,1.023-13.885.039-.669.118-1.927.118-1.927L161.527,5l.039-.039,1.18-1.573c-.039.944-.079,1.77-.118,2.793h0c-.157,3.225-.433,6.687-.629,9.873a12.781,12.781,0,0,1-.079,1.849,2.365,2.365,0,0,1-.551.944c-.315.511-.629.944-.9,1.337a15.55,15.55,0,0,1,2.989.669c2.242.629,7.513,2.4,9.794,2.95-3.068-1.1-8.653-3.422-12.193-4.051l.275-.315c.236-.59.787-.393,1.219-.315,3.5.511,8.417,2.793,11.367,3.855a51.636,51.636,0,0,0-6.529-3.068,54.3,54.3,0,0,0-5.585-1.455l.354-.472h.2c.079,0,.157-.039.275-.039a13.78,13.78,0,0,1,3.147.354,15.662,15.662,0,0,1,8.142,3.737c.2.157.433.354.59.511-3.3-4.209-8.653-5.625-10.581-6.018a4.246,4.246,0,0,0-.747-.118c.275-4.563.787-14.357.787-14.514l.039-.079.393-.039h0l.275-.039a4.4,4.4,0,0,1,.079-.865h.039l.433.079h0c.118.275-.551,9.676-.865,14l1.534.708c5.192,1.652,8.693,6.962,8.693,6.962-.039-.039-.079-.079-.079-.118a1.445,1.445,0,0,1,.354.629c-.354.2-.315-.079-.629.079M187.527,3.5l.275.472c.039-.039.039-.079.039,0v.118l.315.472v0l.393.59V4.917a.669.669,0,0,0,.039.275h.354l.9,11.289h0c.118,1.259.2,2.478.315,3.737-.275-.393-.708-.9-1.062-1.416-.315-.433-.551-.59-.669-.983a8.982,8.982,0,0,1-.2-1.888c-.2-3.973-.629-8.811-.826-12.744.039.118.079.2.118.315M186.5,2.989l.472-.079a24.837,24.837,0,0,1,.354,3.5c.275,3.7.59,7.513.826,11.249a32.66,32.66,0,0,0-7.67,1.416,22.928,22.928,0,0,1,6.844-2.163c-.118-4.327-.983-13.806-.826-13.924M175.334,9.283a9.148,9.148,0,0,1,.118-1.888,5.514,5.514,0,0,1,1.573-2.163A17.756,17.756,0,0,1,179.149,3.3,38.753,38.753,0,0,1,184.42.236c.315,5,.59,9.086.787,14.514a17.392,17.392,0,0,0-9.951,7.906c-.157-4.287.079-8.811.079-13.373m-.079,14a1.049,1.049,0,0,1,.275-.551v.039s3.619-5.467,8.889-7.041c.433-.2.865-.393,1.3-.551-.236-4.13-.983-13.767-.826-14.082l.433-.079c0,.039.039.354.079.865v.039l.275.039V1.849l.393.079.826,14.554c-.275.039-.551.118-.826.157a21.758,21.758,0,0,0-5.625,2.045c-.236.118-.433.236-.669.354a14.569,14.569,0,0,0-4.13,3.54l.433-.433c2.439-2.36,6.451-3.776,10.974-4.091a2.223,2.223,0,0,1,.511,0c.157,0,.275-.039.472-.039l.354.472.236.315.039.079c-1.023.2-1.259.236-1.573.275-4.287.747-7.749,2.557-10.659,3.894.865-.157,3.3-1.1,4.209-1.416a39.414,39.414,0,0,1,7.906-2.2c.433-.079.629-.079.944.433-3.54.747-9.2,2.911-12.429,3.973a48.99,48.99,0,0,0,5.467-1.455c2.124-.59,4.209-1.337,6.411-1.927a1.362,1.362,0,0,1,1.3.59c-3.107,1.062-7.08,2.163-10.305,3.147a11.744,11.744,0,0,1-2.6.551,3.472,3.472,0,0,0-2.045-1.416h0a.039.039,0,0,0-.039-.039" transform="translate(-137.455)" fill="#8b7736"/>
    <path id="Path_22" data-name="Path 22" d="M195.157,116.954l.275-.039V116.8a.667.667,0,0,0-.393,0H195c.039.118.118.118.157.157m.511.157h0a1.087,1.087,0,0,0,.551-.079.664.664,0,0,0-.393-.118.3.3,0,0,1-.157.039c0,.039-.039.079-.039.118l.039.039Zm1.927-.039h0c.2,0,.511,0,.629-.157V116.8a.845.845,0,0,0-.59.118l-.079.079c0,.039.039.039.039.079m.9-.315h0l.315-.039V116.6c-.079-.118-.236-.039-.315-.039a.147.147,0,0,1-.157.118Z" transform="translate(-158.931 -70.697)" fill="#fff"/>
    <path id="Path_23" data-name="Path 23" d="M200.2,116.873Z" transform="translate(-162.086 -70.892)" fill="#fff"/>
    <path id="Path_24" data-name="Path 24" d="M200.283,115.739l.039-.039s-.079.039-.039.039" transform="translate(-162.129 -70.191)" fill="#fff"/>
    <path id="Path_25" data-name="Path 25" d="M197.6,115.4Z" transform="translate(-160.508 -70.009)" fill="#fff"/>
    <path id="Path_26" data-name="Path 26" d="M195.4,115.1Z" transform="translate(-159.174 -69.827)" fill="#fff"/>
    <path id="Path_27" data-name="Path 27" d="M206.3,114.9h0Z" transform="translate(-165.786 -69.705)" fill="#fff"/>
    <path id="Path_28" data-name="Path 28" d="M204,114.873h0" transform="translate(-164.391 -69.679)" fill="#fff"/>
    <path id="Path_29" data-name="Path 29" d="M209.2,111.436l.551-.157c0-.039,0-.079-.039-.079a4.574,4.574,0,0,1-.708.157Z" transform="translate(-167.424 -67.461)" fill="#fff"/>
    <path id="Path_30" data-name="Path 30" d="M184.6,110.7h0Z" transform="translate(-152.622 -67.157)" fill="#fff"/>
    <path id="Path_31" data-name="Path 31" d="M211.1,110.015a.867.867,0,0,0,.59-.236l-.079-.079c-.236.118-.354.236-.511.315Z" transform="translate(-168.698 -66.551)" fill="#fff"/>
    <path id="Path_32" data-name="Path 32" d="M186.165,67.474V60.827h-6.687L175.112,56.5l-4.366,4.327h-6.8v6.726l-4.641,4.6,4.641,4.6v6.215h6.293l4.8,4.759,4.8-4.759H186.2V76.639l4.681-4.6Zm-.865,8.811v5.782h-5.821l-4.405,4.366-4.366-4.366h-5.743v-5.7l-4.248-4.209,4.248-4.209V61.771h6.215l4.012-3.973,4.012,3.973h6.136v6.057l4.248,4.209Z" transform="translate(-137.273 -34.276)" fill="#8b7736" fill-rule="evenodd"/>
    <path id="Path_33" data-name="Path 33" d="M182.486,105.589c.551,0,.826-.511,1.259-.59a1.624,1.624,0,0,1,.59.275,1.262,1.262,0,0,0,1.219.118c.118-.079.118-.157.118-.275v-.039a6.635,6.635,0,0,1-1.062-.472c.59,0,1.023.629,1.573.472a.169.169,0,0,0,.157-.157v-.157c-.472-.236-.944-.315-1.3-.511a4.882,4.882,0,0,1,1.416.433,5.6,5.6,0,0,0,.629.2,2.556,2.556,0,0,1-.9.354v.039a1.16,1.16,0,0,0,.9.079,1.891,1.891,0,0,0,.865-.315l.2-.629h.236l.039.039-.157.236c0,.079.039.079.079.079.315-.118.551-.315.9-.472l.275-.629a.039.039,0,0,0-.039-.039l-.118-.157a4.653,4.653,0,0,1-1.534.236H187.8a8.92,8.92,0,0,0,2.989-.983.3.3,0,0,0-.039-.118,3,3,0,0,1-1.927.551,7.08,7.08,0,0,0,1.377-.472c.472-.275.9-.551,1.259-.747v-.118a2.882,2.882,0,0,1-1.573.511h0a9.045,9.045,0,0,0,1.377-.59c.275-.315.551-.393.9-.747,0-.039,0-.039-.039-.039a3.924,3.924,0,0,1-.747.472.964.964,0,0,1-.629.236h0a2.441,2.441,0,0,0,.9-.551c.315-.315.669-.59.983-.9l-.039-.039a5.315,5.315,0,0,1-1.219.747,4.161,4.161,0,0,0,1.495-1.377l-.039-.118a5.37,5.37,0,0,1-.669.669,14.329,14.329,0,0,0,1.377-1.888c0-.079-.039-.079-.039-.079-.354.433-.551,1.023-1.141,1.18.472-.354.629-.865.983-1.3.039-.2.236-.275.236-.551,0,0,0-.039-.079-.039a3.357,3.357,0,0,1-.551.826,8.233,8.233,0,0,0,.393-.826c.039-.236.275-.393.315-.629h-.079l-.393.59v-.039l.472-1.573h-.039a3.443,3.443,0,0,1-.393.865c-.079,0,0-.039,0-.118l.354-1.062h-.039l-.315.747.315-1.1h-.079l-.157.59c-.157-.433.157-.944.157-1.337l-.118-.039a2.8,2.8,0,0,1-.354,1.416h-.079l.157-.865-.039-.039-.354,1.731c-.039,0-.039.039-.039,0,0-.511.275-1.023.275-1.416-.039.236-.236.511-.275.826a6.9,6.9,0,0,1-.433.944c-8.063,10.227-15.773,2.714-17.425-1.731h-.039c-.118-.079-.118-.236-.157-.275-.2-.157-.393.039-.433.118a.8.8,0,0,0,0,.787v.039l.157.2v.118c-.118.118-.2.118-.236.275-.079.079,0,.2,0,.315l-.393.118a.581.581,0,0,0,.039.354,1.412,1.412,0,0,0,.393.275v.2l.315.118a1.047,1.047,0,0,0,.393.865.609.609,0,0,0,.433.118.975.975,0,0,0,.236.826c0,.039,0,.039.079.039-.079.2-.315.2-.354.433,0,.157,0,.393.118.433.157.236.511,0,.787.236h.039c-.039.118-.275.118-.275.275-.079.2.079.354.118.433a.729.729,0,0,0,.275.079l-.275.2.079.2a1.418,1.418,0,0,0,.747.275v.039h.157a.8.8,0,0,0,.275.472h.039v.079c-.039,0-.157.079-.236.079a1.428,1.428,0,0,0-.315.354c0,.2.079.315.2.354.2.236.354.236.669.118.157.118.118.354.236.393.079,0,.079,0,.157.079,0,.2-.118.472,0,.708.118,0,.118.079.2.079a2,2,0,0,0,.59-.551.422.422,0,0,1,.472.039c.039.039.039.039.039.157a1.458,1.458,0,0,0-.157.551c.079.236.157.354.275.393a.479.479,0,0,0,.747-.433c0-.079,0-.157.039-.157.236-.157.551.157.708-.157.039,0,.039-.079.079-.079.118.079.275.157.354.079a.254.254,0,0,0,.2-.079h.039c0,.157.118.2.157.275,0,.079-.118.079-.118.236.039.039.157.079.2.118.865-.079,1.259-.747,2.163-.9h.2v.118h-.157c-.039,0,0,0,0,.039l-.236-.039c.118.039.118,0,.118.039-.118.079-.118,0-.157,0v.079h.039c0,.039-.079,0-.079,0l-.039.039c-.079,0-.118.079-.118,0v.079h-.039v.157h-.079l-.157.079h-.039c.039,0,.039,0,0,.079h-.079c-.039.039-.118,0-.118,0v.039h-.079c-.157.118-.433,0-.551.118l-.118.157c0,.079.118.079.118.2h.079Zm-7.159-7.237-.079-.039c0-.039-.039-.079,0-.157l.157.118v.039c0,.039-.039.039-.039,0a.039.039,0,0,1-.039.039" transform="translate(-145.984 -57.208)" fill="#030101"/>
    <rect id="Rectangle_2" data-name="Rectangle 2" height="0.039" transform="translate(29.579 40.356)" fill="#030101"/>
    <path id="Path_34" data-name="Path 34" d="M174.354,101.451l.236-.393a.5.5,0,0,0-.433-.157.392.392,0,0,0-.157.039.422.422,0,0,0,.079.236.909.909,0,0,0,.275.275m2.517,4.563h.079c0-.2.157-.354,0-.511a.692.692,0,0,0-.511.236l.039.079a.4.4,0,0,0,.393.2m1.455,2.753h0a3.267,3.267,0,0,0,.551-.511,2,2,0,0,0-.551-.157,1.166,1.166,0,0,0-.079.551c.039,0,.079.039.079.118m3.029-.157h.079v-.039h.039l.039-.118.039.118c0-.118,0-.118-.039-.118h.079a.039.039,0,0,1-.039-.039h.039c.039-.039,0-.039,0-.118,0-.039,0-.039.039-.039-.2.039-.393-.2-.669-.236v.039c.039.2.157.354.2.511Zm.551.157h.157v-.118a.039.039,0,0,1,.039.039.039.039,0,0,0,.039-.039H182.1l.039-.079-.039-.157h-.039l-.118-.039v.039c-.118.039-.118.236-.039.354" transform="translate(-146.191 -61.212)" fill="#d2a960"/>
    <path id="Path_35" data-name="Path 35" d="M194.136,121.32l.315-.039v-.118a.955.955,0,0,0-.472,0H193.9c.079.118.157.118.236.157m.59.2h0a1.138,1.138,0,0,0,.669-.118.687.687,0,0,0-.472-.157.527.527,0,0,1-.2.039c0,.039-.039.079-.039.157l.039.079Zm2.321-.039h0c.236,0,.59,0,.747-.2v-.118a1.22,1.22,0,0,0-.708.118q-.059.118-.118.118c.039.039.079.039.079.079m1.1-.393h0l.393-.079v-.157c-.118-.157-.275-.079-.393-.079a.214.214,0,0,1-.2.118Z" transform="translate(-158.264 -73.254)" fill="#bda586"/>
    <path id="Path_36" data-name="Path 36" d="M197.148,119.031l.2-.039-.079.039.236-.039h.393a2.461,2.461,0,0,0-.983-.393.269.269,0,0,0-.2.118h.118l-.079.118.079-.079s.039,0,0,.079h-.039c-.039,0-.039,0-.079.079l.2-.079h.079l-.157.157c.079,0,.2-.079.315-.079l-.236.118.393-.118v.079a.767.767,0,0,0-.315.039Zm1.259-.315h-.039c.039,0,.039,0,.039-.079l-.079.079v-.079h-.236a.039.039,0,0,1,.039-.039h-.039l-.039-.079-.118.079H197.9c0-.079-.039,0-.039,0v-.079h-.079l.079-.039H197.7c.039,0,.039,0,0-.118,0,0,0,.118-.039.118-.079-.118,0-.118,0-.118l-.2.118c0-.118.079-.118.079-.118h-.118a.355.355,0,0,1,.2-.039c.315.079.669.2.944.275Zm-1.219-.865h0c.079,0,.079-.079.118-.079,0-.079.039-.079.118-.079h.039l.079-.079c.039,0,.118-.157.236-.039l.039.039.039-.039v-.118l.118-.079c0-.079-.118-.079-.157-.079a1.388,1.388,0,0,0-.433.354h-.118Zm-1.691.354h.118l-.118-.354a.665.665,0,0,0-.472-.157v.079c-.039,0-.039,0,0,.079v-.079c.079.079,0,.079,0,.118.079.079.079,0,.079,0h.039l-.039.118.039-.039s0-.079.118-.079v.157c0-.079,0-.079.079-.079h.039v0h.039l-.039.079c.039.039.039-.079.079,0a.039.039,0,0,1-.039.039l.039-.039.079.039-.079.079c.039.039.039-.039.079-.039l-.079.079Zm-.747.787h-.275l1.141-.629h0c.039,0,.039-.039.118,0,.157,0,.2-.118.315-.157l.157-.079c.118.039.118.118.118.118H196.2v.039l-.157.079v.039h-.118l-.039.039h-.2v.118h-.079c-.039,0-.039,0-.039.039h-.118v.079s-.079-.079-.079,0H195.3v.039h-.039c-.079.079,0,.079,0,.079-.079.079-.079,0-.157,0v.079h-.039c0,.079,0,.079-.079.079l-.2.079s.039,0,.039.079h-.079Z" transform="translate(-158.601 -71.161)" fill="#79645d"/>
    <path id="Path_37" data-name="Path 37" d="M200.2,121.339l.039-.039a.039.039,0,0,0-.039.039Z" transform="translate(-162.086 -73.588)" fill="#fff"/>
    <path id="Path_38" data-name="Path 38" d="M200.283,119.939l.039-.039s-.079.039-.039.039" transform="translate(-162.129 -72.739)" fill="#fff"/>
    <path id="Path_39" data-name="Path 39" d="M197.1,119.6Z" transform="translate(-160.205 -72.557)" fill="#fff"/>
    <path id="Path_40" data-name="Path 40" d="M194.5,119.2Z" transform="translate(-158.628 -72.314)" fill="#fff"/>
    <path id="Path_41" data-name="Path 41" d="M207.5,119h0Z" transform="translate(-166.514 -72.193)" fill="#fff"/>
    <path id="Path_42" data-name="Path 42" d="M204.7,118.973h0c.039,0,0-.039,0,0" transform="translate(-164.816 -72.166)" fill="#fff"/>
    <path id="Path_43" data-name="Path 43" d="M194,117.979h0v0Z" transform="translate(-158.324 -71.525)" fill="#030101"/>
    <path id="Path_44" data-name="Path 44" d="M194.228,117.879h0a.085.085,0,0,0-.079-.079c-.079.039,0,.039.079.079" transform="translate(-158.395 -71.465)" fill="#030101"/>
    <path id="Path_45" data-name="Path 45" d="M187.1,117.3Z" transform="translate(-154.138 -71.161)" fill="#030101"/>
    <path id="Path_46" data-name="Path 46" d="M187.479,117.066v-.079c0-.039-.039.079-.079,0Z" transform="translate(-154.32 -70.967)" fill="#030101"/>
    <path id="Path_47" data-name="Path 47" d="M188.439,116.839h.039V116.8l-.079.039Z" transform="translate(-154.927 -70.858)" fill="#fff"/>
    <path id="Path_48" data-name="Path 48" d="M187.8,116.557h0c.039-.079.039-.079.079-.079s-.039,0,0-.039V116.4h-.039Z" transform="translate(-154.563 -70.615)" fill="#030101"/>
    <path id="Path_49" data-name="Path 49" d="M188.273,116.53h0c0-.039-.039-.079,0,0Z" transform="translate(-154.839 -70.667)" fill="#030101"/>
    <path id="Path_50" data-name="Path 50" d="M187.3,116.246h.039c.039-.079-.039,0-.039,0" transform="translate(-154.26 -70.501)" fill="#030101"/>
    <path id="Path_51" data-name="Path 51" d="M189.7,116Z" transform="translate(-155.716 -70.373)" fill="#030101"/>
    <path id="Path_52" data-name="Path 52" d="M190.279,115.939h0l-.079-.039c0,.039.039.039.079.039" transform="translate(-156.019 -70.312)" fill="#fff"/>
    <path id="Path_53" data-name="Path 53" d="M194.639,115.879a.039.039,0,0,1,.039-.039v.039c0-.039,0-.079-.079-.079,0,.079,0,.079.039.079Z" transform="translate(-158.688 -70.251)" fill="#030101"/>
    <path id="Path_54" data-name="Path 54" d="M190,115.6Z" transform="translate(-155.898 -70.13)" fill="#fff"/>
    <path id="Path_55" data-name="Path 55" d="M211,114.875l.669-.2a.137.137,0,0,0-.039-.079,8.239,8.239,0,0,1-.826.2Z" transform="translate(-168.516 -69.523)" fill="#fced00"/>
    <path id="Path_56" data-name="Path 56" d="M194.9,114.9h0Z" transform="translate(-158.87 -69.705)" fill="#030101"/>
    <path id="Path_57" data-name="Path 57" d="M198.939,114.579h0c.039,0,.039-.039.039-.079h-.039c-.039,0,0,.039-.039.079Z" transform="translate(-161.297 -69.463)" fill="#fff"/>
    <path id="Path_58" data-name="Path 58" d="M181.4,113.839h.079V113.8Z" transform="translate(-150.68 -69.038)" fill="#fff"/>
    <path id="Path_59" data-name="Path 59" d="M187.957,113.575v-.118h-.079l-.039-.039.039-.118h-.039v.118H187.8v.118h.079c.079,0,0,.039.079.039m0,.118h0c0-.079.079,0,0-.079v.079m.2-.157h0v-.079s0-.039-.079-.039h-.039V113.3h-.079v.118h.118Z" transform="translate(-154.563 -68.735)" fill="#fff"/>
    <path id="Path_60" data-name="Path 60" d="M188.179,113.718l-.039-.118a.039.039,0,0,1-.039.039c0,.039.039,0,.039,0,0,.039,0,.079.039.079-.039.039-.039,0,0,0" transform="translate(-154.745 -68.917)" fill="#fff"/>
    <path id="Path_61" data-name="Path 61" d="M213.2,113.154a.864.864,0,0,0,.708-.275l-.118-.079c-.236.118-.393.275-.59.354Z" transform="translate(-169.972 -68.431)" fill="#fced00"/>
    <path id="Path_62" data-name="Path 62" d="M215.139,111.705l.59-.275v-.039c-.157-.039-.275.118-.472.2a.3.3,0,0,1-.157.039c0,.039,0,.079.039.079" transform="translate(-171.125 -67.573)" fill="#fced00"/>
    <path id="Path_63" data-name="Path 63" d="M177.054,100.255h0l-.118-.039v-.079c0-.039.118-.039.118-.039v-.079h.118s0-.039.079-.039l.079.039c0-.039-.079-.039-.079-.118v-.039c0-.039-.118-.039-.118-.118s0,0,.039,0c-.118-.2-.236-.433-.433-.708-.039.079-.157.079-.157.2a.383.383,0,0,0,.157.354c.079.039.157.039.157.079,0,.236-.157.354,0,.551Zm-1.141-.315h.079c0-.039.039-.039,0-.039l-.079.039c-.079-.039-.118-.2-.236-.275h.079c.039,0,.039.039.039.079h.118v-.079h.157a.039.039,0,0,0-.039.039l-.079.118h.039l.079.079c.079-.079,0-.079,0-.157V99.7c.079-.039.079,0,.118,0a.039.039,0,0,0,.039-.039V99.7h.079l-.079-.039.079-.079h-.079v-.157c0-.039-.079,0-.157-.039,0-.039.079-.039.079-.118l.079.079v.079c.079,0,.079-.039.118-.039v.039c.118,0,.118,0,.118.039,0-.039-.118-.079-.118-.118-.079,0-.079,0-.118.039v-.118l-.157-.236.157.079.118-.079h-.079c-.079,0-.079,0-.079-.039v-.079h.118a1.677,1.677,0,0,0-.787-1.062h.039a.949.949,0,0,1,.472.393,1.175,1.175,0,0,0-.236-.551,6.836,6.836,0,0,1-.393-.747h0a5.693,5.693,0,0,1,.787,1.337v-.157c-.2-.433-.393-.944-.59-1.455h-.079c-.157-.039-.157-.275-.354-.275h-.236a.74.74,0,0,0,0,.511c0,.118.2.2.236.275.039.039.118.118,0,.315-.079.079-.236.079-.275.2,0,0,0,.157.039.157.2.275.629.433.551.826-.118.236-.315.354-.2.59.118.157.118.354.275.433h.118c.079,0,0,.079,0,.157h.118V99.9Zm1.259,2.793a1.049,1.049,0,0,1-.551-.275v-.2l.315-.157c0-.039.039-.039.039-.157a.575.575,0,0,0-.118-.2,2.257,2.257,0,0,0-.472-.039.563.563,0,0,1-.393-.118v-.275c0-.079.118-.118.157-.118.118-.118.236-.118.275-.315-.039-.275-.275-.315-.433-.511a.433.433,0,0,1,.157-.393c.079-.118.236-.118.354-.118.2.118.236.354.433.511h.039a.741.741,0,0,0,.354-.157l.079-.039a1.47,1.47,0,0,1,.433.157c.039.118.118.2.157.2v.315h-.157v.039s0-.039-.079-.039l-.079.118.039.039-.039-.039c-.039,0-.039,0-.039.039h-.157v.039l-.079.157v0a.077.077,0,0,0-.079.079c.079.079.079.118.079.157.079,0,.079-.079.079-.039l-.079.039-.079-.079-.079-.354v-.551h-.079a3.824,3.824,0,0,0-.039.708,11.313,11.313,0,0,1-.865-1.062,4.514,4.514,0,0,0,.865,1.18l-.708-.079v.079a1.282,1.282,0,0,0,.511.157c.118-.039.157,0,.275,0l.157.118v.157s.079-.118.079,0l-.079.039h.079l-.079.118v.118h.079v.118h-.079v.039h.079c0,.118,0,.118.157.157-.157,0,0,.039-.157,0v.118c.157,0,.157-.039.157-.039v.039h-.039l-.2.236.079.039c0,.039,0,.039-.079.079h-.2Zm1.023,1.18h0a.3.3,0,0,1,.2-.275l.039-.118s0,.118.039.118h.157v-.118h.118v-.039c0-.039.118.039.118,0v-.039h-.118l-.236-.118v-.039h.079l.433.039h.039c.039,0,.039,0,.039-.039h.079l-.079-.118h-.079v-.118h.039a1.632,1.632,0,0,0-.275-.511l-.747-.236c.275-.079.472.079.669.079a7.977,7.977,0,0,1-.708-1.023v-.039a.553.553,0,0,0,.157.157,3.969,3.969,0,0,1,.59.826c.118-.236,0-.511.157-.629a1.46,1.46,0,0,0,.236,1.337h.236c0-.118,0,0-.118,0v-.079s0-.039.118-.039h.079l.079-.354v.393h.2v.039a.122.122,0,0,0-.079.039l-.039-.039.315.236c0-.118,0-.118-.079-.118h-.118v-.079c0-.039.079-.039.118-.039l.079-.039c.039.039,0,.039,0,.079v.079H180v-.157c-.039-.079-.039-.118-.079-.118v.039l-.079-.039v-.079h.079c0-.039,0-.039-.079-.039v-.039h.079l.039-.236a.447.447,0,0,0-.118-.315c-.2-.157-.393,0-.59,0-.118-.157-.118-.511-.275-.629l-.118-.039c-.157.039-.2.157-.393.118-.157-.118-.079-.472-.236-.511-.275-.039-.393-.039-.472.039a1.047,1.047,0,0,0-.118.472c.039.157.079.157.2.157a.442.442,0,0,0,.157.2c0,.157,0,.236-.118.275h-.039l-.079.118c0,.315.551.393.433.708-.039.2-.2.236-.315.275a.146.146,0,0,1-.079.118c.079.2.236.275.393.393h0Zm1.259,1.613v-.236c0-.079.039-.118,0-.118h-.039v-.079c0-.079,0-.079.039-.079v.157c.039-.079.039-.079.079-.079-.079-.079-.157-.275-.354-.315-.2.039-.275.315-.393.393a.621.621,0,0,1-.275,0l-.079-.157c0-.079-.039-.236-.079-.236-.118-.118-.275.039-.472.039-.2-.039-.275-.039-.315-.157-.157-.118,0-.236.039-.393.039-.118.2-.118.315-.118.157,0,.275,0,.315-.039a.585.585,0,0,0,.039-.236c0-.118.039-.2.118-.2.157,0,.433.118.59,0a.4.4,0,0,0,.2-.315c0-.157.157-.2.275-.275.236,0,.472.236.629.433l-.079.118.079.079a.077.077,0,0,0-.079.079c.079.039.079,0,.079,0l.039.118h.079v.039c-.079,0,0-.039-.079-.039h-.157c0,.039.039.039.039.079.079,0,.118-.079.118,0h-.039c-.275.079-.472-.2-.669-.315v.039l.275.275a2.741,2.741,0,0,0-.747.236c-.118-.039-.354-.236-.511-.236v.079l.511.157c-.315.157-.629,0-.865.236h.118c.236-.079.59,0,.787-.157-.039.157-.118.2-.275.354v.118c.275-.118.275-.393.511-.551a1.63,1.63,0,0,1,.59-.079c-.118.079-.236.2-.315.236v.157a2.962,2.962,0,0,0,.354-.354.242.242,0,0,1,.275-.039c.039,0,.157,0,.157.039l-.157.039.118.118h.039l.079.079a.126.126,0,0,1-.118.118c0,.039,0,.039.039.039h-.039v.079h.039v.079h-.039v-.079h-.118s-.079.079-.118.079h-.118l.039.039c.039.079.039,0,.079.079l-.039.039-.079-.039v.039h-.079v-.118l-.118.118-.039.039v.157c-.039,0-.079,0-.079.079h-.039c-.079,0-.039.157-.079.354m.787,1.141h0a.517.517,0,0,0,.393-.118c.118-.236,0-.511.2-.629.236-.079.472.275.669.039.118-.118,0-.236-.039-.315-.039-.118-.157-.2-.157-.315a.426.426,0,0,1,.157-.2c.079,0,.236.079.315.079a.428.428,0,0,0,.275.2c.079-.079.079-.079.118-.079l.039-.118-.079-.118-.118-.079-.079.079h-.079l.079-.079h-.275l-.2.079c-.039,0-.039-.079-.039-.079s0,.079-.039.079l-.118-.079a.109.109,0,0,1-.157,0c-.079,0-.079,0-.079-.079h-.118c-.157.079-.079.315,0,.511a1.854,1.854,0,0,0,.118.354.9.9,0,0,1-.236-.59,4.042,4.042,0,0,0-.472,1.1,1.753,1.753,0,0,1,.315-1.023l-.039-.079c-.118.118-.2.236-.315.236v-.039c.118-.236.472-.275.59-.511v-.118h.039l-.079-.157h-.079v-.039c.079,0,0-.157.039-.157h.039l-.039-.079c.039-.079.079,0,.079-.079.039-.039-.039-.039-.039-.079l.118-.118h-.039v-.039l.039-.079h-.118l-.039-.039-.354.079c-.039.079,0,.079,0,.2l.236.2v.157c-.118.039-.157.118-.275.157a1.219,1.219,0,0,0-.433.2.434.434,0,0,0-.393.2.3.3,0,0,0,.039.275c.157.079.354.039.472.118.118.157.039.236,0,.354a.413.413,0,0,0-.157.433c0,.157.039.236.2.275h.118Zm1.1-1.691c-.039,0-.079-.039-.079-.157-.118-.039-.236-.157-.275-.157l.039-.157a1.356,1.356,0,0,0,.472-.354.284.284,0,0,0-.157-.236c-.157-.118-.472,0-.708.039-.079.039-.157-.039-.236-.039-.039,0-.039-.079-.118-.118-.039,0-.118-.079-.118-.2.118-.118.275,0,.354-.118a.216.216,0,0,0,.157-.236c-.039-.2-.354-.275-.551-.354a.544.544,0,0,1-.2-.354l.039-.118v-.039c.039-.118.157-.157.236-.2.236.2.511.2.669.511.079,0,.236,0,.275-.039l.472.2c.039,0,.039.079,0,.157a.182.182,0,0,0,.118.2.457.457,0,0,0,.393-.079c.157-.039.315,0,.354.118a.483.483,0,0,1,.079.472,4.259,4.259,0,0,0-.275.708,3.841,3.841,0,0,1-.236-.9c0-.118,0-.118-.039-.118v.551c-.079-.236-.354-.393-.551-.551l-.157-.551c0-.079-.039-.079-.039,0h-.039l.079.511a2.129,2.129,0,0,1-.9-.865l-.039.039v.039a3.023,3.023,0,0,0,.865.865.709.709,0,0,0-.472.118h0c.2.039.472-.118.708,0,.2.2.511.433.511.669H181.5a.039.039,0,0,1-.039.039l.039.039c.236,0,.472-.039.59.118l.157.354Zm3.461.708h0l.236-.118a.3.3,0,0,0,.079-.393.275.275,0,0,0-.079-.157,1.084,1.084,0,0,1-.275-.354c0-.2.236-.2.2-.511-.079-.079-.2-.079-.315-.157-.157-.079-.2,0-.354,0h-.236c-.039,0-.079-.079-.2-.157-.039-.2,0-.393-.118-.472a.356.356,0,0,0-.393-.118,3.626,3.626,0,0,0-.747.511h.118c.157.079,0,.079,0,.079,0,.039.039.039,0,.079H182.6l-.039.118c0,.039.039-.039.039,0,.118.039,0,.039,0,.079a.122.122,0,0,1-.079-.039v.039l.079.039h-.039s.039,0,.039.118v.039c.472-.118.629-.393.983-.551l-.157.2-.354.236c.157.118.354,0,.551.118a.969.969,0,0,0,.472.039c.2,0,.393.118.59,0,0,.118-.118.157-.236.2-.079,0-.236-.039-.393-.039.2.2.354.511.59.708h0c-.275-.079-.433-.511-.708-.669,0,.157.118.275,0,.551H183.9c.039-.236,0-.551-.157-.551a.982.982,0,0,0-.865-.118c.079.118.2.157.2.275,0,.039-.039.039-.039,0-.118-.157-.157-.2-.354-.2l-.039.039h-.275v.157a.077.077,0,0,0,.079-.079c.039,0,.039.079.079.079a.039.039,0,0,1-.039.039h-.118l-.039-.039v.039s.039.079,0,.118c-.039,0-.039.157-.039.2v.079h.039c.039,0,0,0,0,.079l.118-.079v.079h-.079l.157.079a.667.667,0,0,0,.511-.157c.118-.118.275-.236.354-.118a.039.039,0,0,1,.039.039c.157.079.157.433.275.551h.157c.157-.079.2-.275.354-.2.315.039.315.236.59.275h0" transform="translate(-146.728 -58.482)" fill="#00ab5b"/>
    <rect id="Rectangle_3" data-name="Rectangle 3" width="0.039" height="0.039" transform="translate(30.13 41.458)" fill="#030101"/>
    <path id="Path_64" data-name="Path 64" d="M207.485,100.517c.079,0,.079,0,.079-.039l.157-.157v.039c.157-.2.079-.315,0-.551a1.905,1.905,0,0,1,0-.669,6.513,6.513,0,0,1-.433.944,1,1,0,0,0,.079.472c.039-.039.118-.079.118-.039m.551-.747c-.079,0-.079-.039-.079-.118-.118-.315.118-.669.2-.983-.118.315.2.747-.118,1.023Zm.472-.354h0a.883.883,0,0,0,.315-.59,2.891,2.891,0,0,0,0-.826,10.536,10.536,0,0,0-.472.944.457.457,0,0,0,.079.393Zm-.157.747h0a1.025,1.025,0,0,0,.433-.472c.079-.2.157-.354.236-.59a8.009,8.009,0,0,1-.669.59,2.319,2.319,0,0,0-.157.315l.157.157m-.315.708a.216.216,0,0,1-.2-.118c0-.118,0-.157.039-.2.157-.275.629-.2.865-.433a1.913,1.913,0,0,1-.433.551.368.368,0,0,1-.275.2m-2.242,2.2h0a1.88,1.88,0,0,0,1.1-.393c-.2-.118-.472.039-.708,0h.236c.354-.275.59-.787.9-.983l.118-.157c.118.157.236.157.511,0a1.74,1.74,0,0,0,.59-.9,2.156,2.156,0,0,1-.9.433c-.079.118-.2.157-.2.354,0,.118-.315.275-.433.433-.275.315-.826.157-1.062.629v.079l.2.118h-.118a.9.9,0,0,0-.433.118l-.118.118c0,.118.039.118.039.157Zm.669-1.023c-.039,0-.157,0-.157-.039-.039,0-.039-.039-.039-.118-.039-.079.039-.2.157-.315a2.879,2.879,0,0,0,1.1-.944c-.275.393-.511.865-.787,1.259a.263.263,0,0,1-.275.157m-.669.472a.039.039,0,0,1-.039-.039v-.393a6.865,6.865,0,0,1,.9-1.062l.315-.236c-.039-.079-.039-.079-.118-.079l-.118.2c0-.2.079-.236.118-.354.118-.157.2-.393.275-.472a3.6,3.6,0,0,0-.039.629.835.835,0,0,1-.393.511l-.079-.118a2.138,2.138,0,0,0-.629,1.3.271.271,0,0,1-.2.118m-.393.393c-.079,0-.118,0-.118-.118-.079-.118,0-.275.039-.393a1.714,1.714,0,0,1,.511-.551c-.2.2-.157.59-.2.865-.079.118-.157.2-.236.2m-.708.393h0l.236-.039a7.243,7.243,0,0,0,.236-.9,1.211,1.211,0,0,0-.551.826c.039.039.079.079.079.118Zm-.551.472-.039-.079c-.079-.039-.079-.118-.079-.275.157-.2.433-.511.59-.708a.523.523,0,0,1-.118.315c0,.157,0,.511-.118.629,0,.039-.118.118-.236.118m-.669.511h0c.039-.039.2-.039.236-.157.2-.354.2-.865.433-1.062h0a2.308,2.308,0,0,0-.826.983c.079.118.079.157.079.2Zm-.787.354c-.039,0-.079-.039-.118-.079-.118-.236,0-.393.079-.551a4.175,4.175,0,0,1,.826-.629,7.351,7.351,0,0,1-.472.983c-.039.2-.118.275-.315.275m-.944.511h0c.157,0,.236-.039.433-.2.2-.275.2-.787.511-1.1a2.946,2.946,0,0,0-1.023.944.221.221,0,0,0,0,.354h.079m-.708.472c-.079-.039-.157-.039-.2-.118a.354.354,0,0,1-.039-.2,2.46,2.46,0,0,1,1.219-1.3,2.24,2.24,0,0,0-.59,1.1c-.157.2-.157.511-.393.511m-.826.315h0c.157-.039.236-.236.275-.315a5.564,5.564,0,0,1,.9-1.377,2.646,2.646,0,0,0-1.495,1.3.156.156,0,0,0,.039.2.545.545,0,0,0,.275.2m6.293-2.714h0c.079-.157.157-.157.236-.157.079-.118.2-.118.236-.236l-.511.275v-.039c.118-.118.393-.236.511-.354V102.6c.079-.039.118-.079.118-.157-.039-.039-.079-.039-.079-.079.079-.2.315-.275.354-.511h-.039l-.275.2v-.039c.275-.315.708-.2,1.1-.315.118,0,.118-.157.157-.157-.157.236-.236.433-.433.511a.805.805,0,0,1-.59.354l.354-.354-.472.315v.039c0,.039-.079.118-.118.157,0,0-.079,0,0,.118a6.564,6.564,0,0,0,.708-.2,7.98,7.98,0,0,1-.9.708H206.5Zm-.433.708h0a3.867,3.867,0,0,0,.629-.2,1.147,1.147,0,0,0,.669-.511,3.088,3.088,0,0,1-.865.2c-.2.236-.551.236-.708.433,0,.079.079.079.118.079.079-.079.118-.157.157-.157h.118l-.2.118c0,.039.039,0,.079.039m-.787.669h0a3.277,3.277,0,0,1,.59-.157c.2-.157.511-.2.708-.433-.079,0-.118.118-.236,0-.157.118-.354,0-.551,0l-.865.433c.039.118.118.157.157.118.236,0,.433-.2.59-.236l.039.079Zm-.865.669h0a3.152,3.152,0,0,0,1.534-.551h-.118a4.935,4.935,0,0,0-2.006.393c.039.118.157.118.236.118.354-.118.551-.157.826-.236h.079c0,.079-.079.079-.079.118-.236.039-.433.157-.59.157h.118Zm-.433.472h-.157c.157-.118.354-.039.511-.157l-.079-.079a2.415,2.415,0,0,1-1.023.118.585.585,0,0,1,.236-.039c.472-.354,1.023,0,1.495-.079a3.534,3.534,0,0,1-.983.236m-.747.708h1.219a.866.866,0,0,0,.315-.039l.275-.433c-.433,0-.9.079-1.377.079-.079,0,0,.079-.079.079-.039.039-.039,0-.039,0h-.039c-.039,0,0,0,0,.039l-.039-.039h-.118v.079l-.079-.118h-.039c-.039,0-.039.039-.039.118l-.2.039h-.118l-.118.118Zm.315.708a14.728,14.728,0,0,1-1.77-.472,5.689,5.689,0,0,0-.826-.315l-.354-.079-.118-.039-.039.039h-.079l-.039.157h-.079c-.039.039,0,.079-.039.079v-.118l.472-.315.118.079.039.039h.079l.079.039v.039h.079v-.118c.079,0,.079.118.118.118h.118c.039,0,.118,0,.118.079.039,0,.079,0,.079-.079l.2.118c0-.039.118,0,.157-.039,0,0,.039,0,.039-.079,0,0,0,.079.118.079.551.118,1.219.2,1.888.275l-.354.511Zm-2.124-.983h0a5.473,5.473,0,0,0,1.534-.2,1.207,1.207,0,0,0,.511-.2,6.637,6.637,0,0,1-2.163-.2c-.118,0-.236.039-.236.2,0,.2,0,.275.079.354a.768.768,0,0,1,.275.039m.826-.551a.236.236,0,0,1-.157-.039c-.079,0-.157-.079-.275-.157a.359.359,0,0,1,.118-.315c.472-.157,1.023.118,1.573.157.039.079.236.079.393.079a.855.855,0,0,1-.393.079,2.992,2.992,0,0,1-1.259.2m.787-.472h0a5.537,5.537,0,0,0,.787-.039,1.491,1.491,0,0,0,.511-.236,6.4,6.4,0,0,1-1.023-.275.627.627,0,0,0-.472.157c-.157,0-.157.157-.157.315.079,0,.079.039.079.039Zm.865-.511h-.118c-.118,0-.236-.039-.236-.2-.039-.039.039-.157.118-.2.472-.2.944.039,1.377.039a1.715,1.715,0,0,1-1.141.354m.747-.511h.315c.236-.118.433-.275.59-.354-.275.039-.629-.079-1.023-.079h-.118c-.079.079-.118.157-.079.236a.077.077,0,0,0,.079.079c.079.118.118.118.236.118m.472-.511h-.2v-.079c-.039-.157,0-.275.079-.315a1.213,1.213,0,0,1,.551-.039,2.577,2.577,0,0,0,.551,0h.157l-.079.039c-.157.039-.2.157-.275.157a.991.991,0,0,1-.787.236m-2.635,3.894h0a2.486,2.486,0,0,0,.826-.2v-.039h-.2c0,.039-.157,0-.157,0h-.039Zm1.731-.747h0l.236-.118s-.079-.039-.079,0h-.118c-.039,0-.039,0-.118.118Zm-4.248-1.652c-.039,0-.039-.079-.079-.079l-.118-.157a2.466,2.466,0,0,1,.865-.629,4.635,4.635,0,0,1-.669.865m-.236-.354c-.039,0-.039,0-.039-.118,0-.079-.118-.2-.2-.315h.118a.68.68,0,0,1,.393-.039l.039.039c-.039.118-.039.236-.079.275-.079.039-.118.157-.236.157" transform="translate(-161.661 -59.453)" fill="#f9ec00"/>
    <path id="Path_65" data-name="Path 65" d="M180.7,109.639h.039V109.6c.039.039-.039.039-.039.039Z" transform="translate(-150.256 -66.49)" fill="#030101"/>
    <path id="Path_66" data-name="Path 66" d="M180.7,109.555h.039c-.039-.039-.039-.039-.039,0Z" transform="translate(-150.256 -66.445)" fill="#030101"/>
    <path id="Path_67" data-name="Path 67" d="M183.679,108.436c0-.039-.039-.039-.039-.118a.039.039,0,0,1,.039-.039c0-.039.039-.039,0-.079l-.079.079c0,.039.079.039.079.157H183.6c0,.039.079-.039.079,0h0" transform="translate(-152.015 -65.641)" fill="#fff"/>
    <path id="Path_68" data-name="Path 68" d="M184,108.518h0v0Z" transform="translate(-152.258 -65.762)" fill="#fff"/>
    <path id="Path_69" data-name="Path 69" d="M182.909,107.854c0-.039-.039-.039,0,0h0c-.039-.039-.039,0,0,0" transform="translate(-151.56 -65.413)" fill="#fff"/>
    <path id="Path_70" data-name="Path 70" d="M175.279,101.651h.039l-.039-.079-.079-.039v.118Zm.118,0h0c.079,0,.079,0,.079-.039v-.039h-.118l.039.079Zm-.039-.157h0v-.118h-.039Zm.157,0h0v-.118h-.079l.079.118Zm-.2-.2h0l.039-.079c-.039.039-.039.039-.039.079m1.18.787h0l.118-.118v-.079H176.5v.079c0,.079-.079.079,0,.118m.079-.157v-.315c-.118-.157-.236-.275-.118-.511l.118.2v.236c0,.039,0,.118.039.118v.157Zm3.973,4.091h0s0-.118-.039-.118l.039.118Zm-1.141,2.124h0l.118-.079c.079-.039,0-.039,0-.118h-.118c-.039.079,0,.079,0,.2m4.838-1.377h.118v-.079c-.118.079-.118,0-.118.079Zm.433-.079h0v-.039c0-.079,0-.079-.039,0l.039.039Zm-.2.079h0l.039-.079v-.039h-.079v.039Zm0-.236h0l.039-.079h-.079v.079Zm.2-.157h0a.054.054,0,0,0,0-.079h-.039l.039.079Zm.079.315h0c.118,0,.118,0,.118-.039,0-.079,0-.079-.118,0Zm-1.77,1.613h.118v-.118s-.118,0-.118.079Zm.118.118h0c.079-.039,0-.039,0-.079-.118,0-.118,0-.118.039.118,0,.118,0,.118.039m.236.275h0l.236-.118-.236-.2v.315Zm-4.209-.511h0v0Zm.157,0c0-.118-.079-.157,0-.157h.039c0,.039.039.118-.039.157Zm-.079-.236h0c.079,0,.079,0,.079-.079,0,.039-.079.039-.079.079m.157-.039h0c.157,0,.039,0,.039-.079h-.039Zm.275.433h0v-.157h-.118c0,.118.079.118.118.157Zm-1.652-2.163h0c.039-.039,0-.039,0-.118,0,0-.118,0-.118.079Zm.157-.118h0c0-.039,0-.157-.039-.157l.039.157c-.039-.039-.039,0,0,0m.157-.118-.157-.079h.157Zm-.157-.157h0c0-.079,0-.079-.039-.118v.039c0,.079,0,.079.039.079m-.157.157-.118-.118.118-.039c.039.039.118.039.118.079-.079.079-.079.079-.118.079m-.118-.157h.039c0-.118-.039-.157-.079-.157H177.8v.079c.039,0,.039.079.079.079Zm-.039.236h.079c0-.118-.039-.118-.079-.118H177.8Zm1.219.315h.079c0-.039-.079-.039-.079,0m-.393-2.36h0c-.039-.039-.039-.079-.079-.157l-.079-.039h-.039v.157c.039.079.118,0,.118,0v.079h.079Zm10.187,3.186h.2c-.079-.118-.275-.118-.315,0Zm-.826.472h.393c-.039-.118-.2-.118-.315-.039h-.157c0,.039.079.039.079.039m3.815-3.147h0l.433-.2v-.157Zm.511-1.023h0l.551-.708c-.157.2-.511.433-.551.708m-.236-.315h0l.236-.354s-.039.079,0,.118a.336.336,0,0,1-.236.236m-.393.275h0l.039-.079.157-.2-.236.275Z" transform="translate(-146.919 -61.334)" fill="#fff"/>
    <path id="Path_71" data-name="Path 71" d="M185.083,67.6a9.2,9.2,0,1,1-9.283,9.2,9.258,9.258,0,0,1,9.283-9.2m0,.669A8.536,8.536,0,1,0,193.7,76.8a8.57,8.57,0,0,0-8.614-8.535" transform="translate(-147.283 -41.01)" fill="#d2a960"/>
    <path id="Path_72" data-name="Path 72" d="M187.752,71.9a7.474,7.474,0,1,1-7.552,7.473,7.512,7.512,0,0,1,7.552-7.473" transform="translate(-149.952 -43.619)" fill="#024f99"/>
    <path id="Path_73" data-name="Path 73" d="M185.629,68.5a8.812,8.812,0,1,1-8.929,8.811,8.889,8.889,0,0,1,8.929-8.811" transform="translate(-147.829 -41.556)" fill="#0094c3"/>
    <path id="Path_74" data-name="Path 74" d="M190.057,75.7A5.979,5.979,0,1,1,184,81.679a6.018,6.018,0,0,1,6.057-5.979" transform="translate(-152.258 -45.924)" fill="#ed1c24"/>
    <path id="Path_75" data-name="Path 75" d="M187.994,72.3a7.336,7.336,0,1,1-7.395,7.355,7.378,7.378,0,0,1,7.395-7.355" transform="translate(-150.194 -43.862)" fill="#df1e26"/>
    <path id="Path_76" data-name="Path 76" d="M190.239,76a5.861,5.861,0,1,1-5.939,5.861A5.918,5.918,0,0,1,190.239,76" transform="translate(-152.44 -46.106)" fill="#00ab5b"/>
    <path id="Path_77" data-name="Path 77" d="M187.438,72.945l4.445-1.849-1.809,4.445,4.445,1.809-4.445,1.809,1.809,4.405-4.445-1.809-1.809,4.405-1.849-4.405L179.3,83.565l1.849-4.405L176.7,77.35l4.445-1.809L179.3,71.1l4.445,1.849,1.888-4.445Z" transform="translate(-147.829 -41.556)" fill="#d2a960"/>
    <path id="Path_78" data-name="Path 78" d="M189.529,75.958l3.7-1.495-1.534,3.658,3.7,1.534-3.7,1.495,1.534,3.658-3.737-1.495-1.495,3.658-1.534-3.658-3.7,1.495,1.495-3.658L180.6,79.655l3.658-1.534-1.495-3.658,3.7,1.495,1.534-3.658Z" transform="translate(-150.195 -43.862)" fill="#fff"/>
    <path id="Path_79" data-name="Path 79" d="M189.875,76.6l3.54-1.455-1.455,3.54,3.54,1.455-3.54,1.416,1.455,3.54-3.54-1.455-1.455,3.5-1.495-3.5-3.54,1.455,1.455-3.54-3.54-1.416,3.54-1.455-1.455-3.54,3.54,1.455,1.495-3.5Z" transform="translate(-150.62 -44.347)" fill="#fff"/>
    <path id="Path_80" data-name="Path 80" d="M197.521,88.047a3.445,3.445,0,0,0,1.1-1.77c.354-1.731-.944-2.832-1.573-3.894.118,1.259,1.023,2.242.944,3.54a3.36,3.36,0,0,1-.393,2.006.14.14,0,0,0-.079.118m-1.495.393a3.712,3.712,0,0,1-.354-.118,2.964,2.964,0,0,1-.944-2.085h-.079a2.155,2.155,0,0,0,.157,1.1,2.684,2.684,0,0,1,.118-3.225v.511c.118.944,0,2.124.708,2.793.039,0,.118,0,.118-.039,0-.433-.275-.747-.354-1.219a6.35,6.35,0,0,1-.275-.983,4.25,4.25,0,0,1,.826-2.832v.2a2.95,2.95,0,0,0,.079.865,1.169,1.169,0,0,1,.079.472,13.271,13.271,0,0,0,.354,1.337,1.918,1.918,0,0,1,.118.551c.2.629-.236,1.416-.079,1.849a.327.327,0,0,0,.275.118v-.2c.551-2.006-1.3-4.091-.275-6.136-.039,1.3.787,2.2,1.1,3.383a4.417,4.417,0,0,1,.079,2.753,1.747,1.747,0,0,1-.511.826c-.2.039-.393.039-.433-.118-.275,0-.433.236-.708.2" transform="translate(-158.541 -49.382)" fill="#df1e26"/>
    <path id="Path_81" data-name="Path 81" d="M207.408,109.454a.354.354,0,1,1-.354-.354.353.353,0,0,1,.354.354" transform="translate(-166.029 -66.187)" fill="#d2a960"/>
    <path id="Path_82" data-name="Path 82" d="M218.408,98.254a.354.354,0,1,1-.354-.354.415.415,0,0,1,.354.354" transform="translate(-172.702 -59.392)" fill="#d2a960"/>
    <path id="Path_83" data-name="Path 83" d="M218.408,82.754a.354.354,0,1,1-.354-.354.353.353,0,0,1,.354.354" transform="translate(-172.702 -49.989)" fill="#d2a960"/>
    <path id="Path_84" data-name="Path 84" d="M207.108,71.354a.354.354,0,1,1-.354-.354.415.415,0,0,1,.354.354" transform="translate(-165.847 -43.073)" fill="#d2a960"/>
    <path id="Path_85" data-name="Path 85" d="M190.908,71.354a.354.354,0,1,1-.354-.354.377.377,0,0,1,.354.354" transform="translate(-156.019 -43.073)" fill="#d2a960"/>
    <path id="Path_86" data-name="Path 86" d="M179.908,82.754a.354.354,0,1,1-.354-.354.353.353,0,0,1,.354.354" transform="translate(-149.346 -49.989)" fill="#d2a960"/>
    <path id="Path_87" data-name="Path 87" d="M179.908,98.254a.354.354,0,1,1-.354-.354.415.415,0,0,1,.354.354" transform="translate(-149.346 -59.392)" fill="#d2a960"/>
    <path id="Path_88" data-name="Path 88" d="M190.908,109.454a.354.354,0,1,1-.354-.354.33.33,0,0,1,.354.354" transform="translate(-156.019 -66.187)" fill="#d2a960"/>
  </g>
  <g id="Group_4" data-name="Group 4" transform="translate(0 84.174)">
    <g id="Group_2" data-name="Group 2" transform="translate(0 16.009)">
      <path id="Path_89" data-name="Path 89" d="M.708,256.037c0-.747-.236-.983-.708-1.18V254.7H4.877c1.967,0,2.911,1.141,2.911,2.557,0,1.455-.983,2.557-2.95,2.557l2.557,3.147a3.3,3.3,0,0,0,1.18.983v.2H6.451l-3.933-4.917v-.2H4.681c1.023,0,1.495-.865,1.495-1.77a1.533,1.533,0,0,0-1.495-1.731H2.557c-.236,0-.433,0-.433.433v6.883c0,.708.236.983.708,1.141v.2H0v-.2c.472-.157.708-.393.708-1.141Z" transform="translate(0 -254.7)" fill="#8b7736"/>
      <path id="Path_90" data-name="Path 90" d="M26.87,259.265v2.753h2.321c.275,0,.393-.315.472-.826h.118l-.157,2.242h-.079c-.039-.354-.118-.747-.354-.747H26.87v2.753c0,.157.079.236.157.236h2.95c.551,0,.9-.629,1.023-1.1h.079l-.315,1.77H25.1v-.157c.393-.157.59-.354.59-.944v-5.625c0-.629-.2-.826-.59-.983v-.157h5.546a.3.3,0,0,0,.2-.079h.079l-.157,1.77h-.079c-.039-.315-.079-.983-.433-.983H26.87Z" transform="translate(-15.227 -256.945)" fill="#8b7736"/>
      <path id="Path_91" data-name="Path 91" d="M44.251,259.941c0-.629-.2-.826-.551-.983V258.8h4.051a2.144,2.144,0,1,1,0,4.248H45.47v2.478c0,.59.2.787.59.944v.157H43.739v-.157c.393-.118.551-.354.551-.944v-5.585Zm1.534-.433c-.2,0-.354.039-.354.393v2.517h2.085a1.471,1.471,0,0,0,0-2.911H45.785Z" transform="translate(-26.511 -257.187)" fill="#8b7736"/>
      <path id="Path_92" data-name="Path 92" d="M69.123,262.912c0,2.675-1.573,4.012-3.147,4.012-1.613,0-3.186-1.377-3.186-4.051V260c0-.629-.2-.787-.59-.944V258.9h2.4v.157a.806.806,0,0,0-.551.865v2.832c0,2.281,1.062,3.461,2.2,3.461,1.062,0,2.124-1.1,2.124-3.225v-2.95c0-.629-.2-.787-.551-.944v-.157h1.927v.157c-.393.157-.551.354-.551.944v2.871Z" transform="translate(-37.734 -257.248)" fill="#8b7736"/>
      <path id="Path_93" data-name="Path 93" d="M84.2,266.727v-.157c.354-.118.551-.354.551-.944V260c0-.629-.2-.826-.551-.944V258.9h4.287c1.023,0,2.321.315,2.321,1.967a2.172,2.172,0,0,1-.669,1.573,2.1,2.1,0,0,1,1.219,2.006,2.362,2.362,0,0,1-2.6,2.281Zm1.731-7.159v2.6h2.4c.511,0,1.219-.2,1.219-1.3,0-1.141-.708-1.3-1.259-1.3Zm0,6.254a.18.18,0,0,0,.157.2h2.557c.9,0,1.3-.787,1.3-1.573s-.393-1.534-1.18-1.534H85.931Z" transform="translate(-51.081 -257.248)" fill="#8b7736"/>
      <path id="Path_94" data-name="Path 94" d="M111.107,266.667H105.6v-.157c.354-.118.551-.315.551-.865v-5.7c0-.629-.2-.826-.551-.983V258.8h2.321v.157a.892.892,0,0,0-.59.983V265.6c0,.275.079.354.236.354h2.6c.472,0,.865-.433,1.141-1.062h.118Z" transform="translate(-64.064 -257.187)" fill="#8b7736"/>
      <path id="Path_95" data-name="Path 95" d="M125.121,258.9v.157a.892.892,0,0,0-.59.983v5.743c0,.551.2.669.59.826v.157H122.8v-.157c.354-.118.551-.275.551-.826v-5.743c0-.629-.2-.826-.551-.983V258.9Z" transform="translate(-74.498 -257.248)" fill="#8b7736"/>
      <path id="Path_96" data-name="Path 96" d="M135.945,265.973a2.6,2.6,0,0,0,2.557-1.77h.079l-.157,1.613a4.93,4.93,0,0,1-2.714.865,4.092,4.092,0,1,1,0-8.181,5.924,5.924,0,0,1,2.517.59c.039,0,.079-.039.118-.079h.079l-.118,1.731h-.079a2.262,2.262,0,0,0-2.321-1.573,3.1,3.1,0,0,0-3.029,3.383,3.164,3.164,0,0,0,3.068,3.422" transform="translate(-79.776 -257.005)" fill="#8b7736"/>
      <path id="Path_97" data-name="Path 97" d="M164.23,258.4a3.879,3.879,0,0,1,4.012,4.012,4.1,4.1,0,0,1-4.13,4.209,3.893,3.893,0,0,1-4.012-3.973,4.082,4.082,0,0,1,4.13-4.248m0,7.513c1.495,0,2.635-1.337,2.635-3.3,0-2.085-1.219-3.54-2.793-3.54-1.495,0-2.635,1.337-2.635,3.3.039,2.085,1.219,3.54,2.793,3.54" transform="translate(-97.127 -256.945)" fill="#8b7736"/>
      <path id="Path_98" data-name="Path 98" d="M185.631,263.127v2.439c0,.59.2.787.59.944v.157H183.9v-.157c.315-.118.551-.236.551-.865v-5.7c0-.629-.157-.747-.551-.9v-.157h5.153c.079,0,.2,0,.236-.079h.079l-.157,1.77h-.118c0-.315-.079-.983-.433-.983h-3.107V262.5h2.124c.354,0,.433-.275.551-.826h.118v2.242h-.118c-.079-.433-.157-.747-.511-.747h-2.085Z" transform="translate(-111.565 -257.187)" fill="#8b7736"/>
      <path id="Path_99" data-name="Path 99" d="M213.952,262.291l-.551-1.3h-3.973l-.826,1.849c-.275.629.275.983.629,1.1v.2H206.4v-.2a2.243,2.243,0,0,0,1.259-1.337l3.225-7.277c-.039-.275-.59-.472-.708-.472V254.7h2.045l3.5,8.024a2.165,2.165,0,0,0,1.219,1.259v.2h-3.422v-.2c.315-.118.9-.472.669-1.1l-.236-.59m-4.169-2.124h3.265l-1.613-3.776Z" transform="translate(-125.215 -254.7)" fill="#8b7736"/>
      <path id="Path_100" data-name="Path 100" d="M235.251,258.4h.079a.367.367,0,0,0,.393.2h5.428v.747l-4.838,6.372h3.776c.472,0,.865-.393,1.141-1.062h.079l-.315,1.77H234.7v-.669l4.838-6.411h-3.619c-.315,0-.629.511-.747.983h-.079Z" transform="translate(-142.384 -256.945)" fill="#8b7736"/>
      <path id="Path_101" data-name="Path 101" d="M256.431,259.265v2.753h2.321c.275,0,.393-.315.472-.826h.118l-.157,2.242h-.079c-.039-.354-.118-.747-.354-.747h-2.321v2.753c0,.157.079.236.157.236h2.95c.551,0,.9-.629,1.023-1.1h.118l-.315,1.77H254.7v-.157a.871.871,0,0,0,.59-.944v-5.625c0-.629-.2-.826-.59-.983v-.157h5.546a.3.3,0,0,0,.2-.079h.079l-.157,1.77h-.079c-.039-.315-.079-.983-.433-.983h-3.422Z" transform="translate(-154.517 -256.945)" fill="#8b7736"/>
      <path id="Path_102" data-name="Path 102" d="M273.79,259.941c0-.629-.2-.826-.551-.983V258.8h4.012a2.108,2.108,0,0,1,2.4,2.124,2.142,2.142,0,0,1-2.439,2.124l2.124,2.6a2.56,2.56,0,0,0,.983.826v.157h-1.77l-3.265-4.051v-.157h1.77a1.317,1.317,0,0,0,1.259-1.455,1.261,1.261,0,0,0-1.259-1.416h-1.731c-.236,0-.354,0-.354.354v5.664c0,.59.2.787.551.944v.157H273.2v-.157c.354-.157.551-.354.551-.944v-5.625Z" transform="translate(-165.74 -257.187)" fill="#8b7736"/>
      <path id="Path_103" data-name="Path 103" d="M294.3,266.727v-.157c.354-.118.59-.354.59-.944V260c0-.629-.2-.826-.59-.944V258.9h4.287c1.023,0,2.321.315,2.321,1.967a2.055,2.055,0,0,1-.708,1.573,2.1,2.1,0,0,1,1.219,2.006,2.362,2.362,0,0,1-2.6,2.281Zm1.77-7.159v2.6h2.4c.511,0,1.219-.2,1.219-1.3,0-1.141-.708-1.3-1.259-1.3Zm0,6.254a.18.18,0,0,0,.157.2h2.557c.9,0,1.3-.787,1.3-1.573s-.393-1.534-1.18-1.534H296.07v2.911Z" transform="translate(-178.541 -257.248)" fill="#8b7736"/>
      <path id="Path_104" data-name="Path 104" d="M319.954,265.154l-.472-1.062h-3.3l-.669,1.534c-.236.551.236.826.551.944v.157H313.7v-.157a1.723,1.723,0,0,0,1.023-1.1l2.635-6.018c-.039-.236-.472-.393-.59-.393V258.9h1.691l2.911,6.647a1.881,1.881,0,0,0,1.023,1.062v.157h-2.832v-.157c.236-.118.747-.393.551-.9a2.254,2.254,0,0,0-.157-.551m-3.461-1.77h2.675l-1.337-3.147Z" transform="translate(-190.31 -257.248)" fill="#8b7736"/>
      <path id="Path_105" data-name="Path 105" d="M339.821,258.9v.157c-.354.157-.551.354-.551.983v5.743a.732.732,0,0,0,.551.826v.157H337.5v-.157c.354-.118.551-.275.551-.826v-5.743c0-.629-.2-.826-.551-.983V258.9Z" transform="translate(-204.748 -257.248)" fill="#8b7736"/>
      <path id="Path_106" data-name="Path 106" d="M348.871,258.839V259c-.393.157-.551.354-.551.983v5.113c0,2.124-.59,3.225-2.281,3.855l-.039-.236c1.023-.747,1.1-1.967,1.1-3.658v-5.113c0-.629-.2-.826-.59-.983V258.8h2.36Z" transform="translate(-209.905 -257.187)" fill="#8b7736"/>
      <path id="Path_107" data-name="Path 107" d="M361.154,265.154l-.472-1.062h-3.3l-.669,1.534c-.236.551.236.826.551.944v.157H354.9v-.157a1.723,1.723,0,0,0,1.023-1.1l2.675-6.018c-.039-.236-.472-.393-.59-.393V258.9H359.7l2.911,6.647a1.88,1.88,0,0,0,1.023,1.062v.157H360.8v-.157c.236-.118.747-.393.551-.9a2.272,2.272,0,0,0-.2-.551m-3.422-1.77h2.675l-1.337-3.147Z" transform="translate(-215.304 -257.248)" fill="#8b7736"/>
      <path id="Path_108" data-name="Path 108" d="M386.195,266.667h-.865l-5.192-6.293v5.271a.8.8,0,0,0,.59.865v.157H378.8v-.157a.8.8,0,0,0,.59-.865v-5.861a.817.817,0,0,0-.59-.826V258.8h1.77l4.877,5.821v-4.8a.817.817,0,0,0-.551-.865V258.8h1.927v.157a.806.806,0,0,0-.551.865v6.844Z" transform="translate(-229.804 -257.187)" fill="#8b7736"/>
    </g>
    <g id="Group_3" data-name="Group 3" transform="translate(2.714)">
      <path id="Path_109" data-name="Path 109" d="M44.721,218.539v.157a.892.892,0,0,0-.59.983v5.7c0,.551.2.669.59.826v.157H42.4v-.157c.354-.118.551-.275.551-.826v-5.743a.9.9,0,0,0-.551-.983V218.5h2.321Z" transform="translate(-28.437 -216.73)" fill="#8b7736"/>
      <path id="Path_110" data-name="Path 110" d="M58.995,226.367h-.826l-5.192-6.293v5.271a.85.85,0,0,0,.551.865v.157H51.6v-.157a.8.8,0,0,0,.59-.865v-5.861a.863.863,0,0,0-.59-.826V218.5h1.77l4.877,5.821v-4.8a.817.817,0,0,0-.551-.865V218.5h1.927v.157a.778.778,0,0,0-.551.865v6.844Z" transform="translate(-34.018 -216.73)" fill="#8b7736"/>
      <path id="Path_111" data-name="Path 111" d="M77.221,218.539v.157a.892.892,0,0,0-.59.983v5.7c0,.551.2.669.59.826v.157H74.9v-.157c.354-.118.551-.275.551-.826v-5.743a.9.9,0,0,0-.551-.983V218.5h2.321Z" transform="translate(-48.153 -216.73)" fill="#8b7736"/>
      <path id="Path_112" data-name="Path 112" d="M83.6,223.743h.079a2.6,2.6,0,0,0,2.753,1.809c1.023,0,2.124-.433,2.124-1.534,0-.9-.9-1.18-1.927-1.455-1.337-.354-2.871-.747-2.871-2.36,0-1.495,1.534-2.2,3.068-2.2a3.454,3.454,0,0,1,2.006.511c.039,0,.118-.039.275-.079h.079v1.731h-.079c-.118-1.259-1.652-1.455-2.321-1.455-.983,0-1.849.393-1.849,1.259,0,.629,1.219.944,1.809,1.1,1.377.354,2.989.9,2.989,2.753,0,1.809-1.77,2.439-3.461,2.4a4.305,4.305,0,0,1-2.675-.9Z" transform="translate(-53.431 -216.427)" fill="#8b7736"/>
      <path id="Path_113" data-name="Path 113" d="M105.581,226.27v.157H103.26v-.157a.776.776,0,0,0,.59-.865v-6.057h-1.77c-.669,0-.9.511-1.062.983H100.9l.157-1.731h6.8l.157,1.731h-.079c-.157-.511-.393-.983-1.062-.983h-1.77V225.4a.633.633,0,0,0,.472.865" transform="translate(-63.926 -216.791)" fill="#8b7736"/>
      <path id="Path_114" data-name="Path 114" d="M121.79,219.641c0-.629-.2-.826-.59-.983V218.5h4.051a2.108,2.108,0,0,1,2.4,2.124,2.142,2.142,0,0,1-2.439,2.124l2.085,2.6a2.881,2.881,0,0,0,.983.826v.157h-1.77l-3.265-4.091v-.2h1.77a1.317,1.317,0,0,0,1.259-1.455,1.261,1.261,0,0,0-1.259-1.416h-1.731c-.2,0-.354,0-.354.354v5.664c0,.59.2.787.59.944v.157H121.2v-.157a.871.871,0,0,0,.59-.944Z" transform="translate(-76.241 -216.73)" fill="#8b7736"/>
      <path id="Path_115" data-name="Path 115" d="M143.763,222.887v2.635a.777.777,0,0,0,.551.747v.157h-2.321v-.157a.733.733,0,0,0,.59-.747V223.2l-2.557-3.7c-.236-.315-.433-.669-.826-.747V218.6h2.478v.157c-.236.079-.551.236-.275.629l1.927,2.832,2.085-2.832c.275-.354,0-.551-.275-.629V218.6h2.045v.157a1.081,1.081,0,0,0-.629.393Z" transform="translate(-87.161 -216.791)" fill="#8b7736"/>
      <path id="Path_116" data-name="Path 116" d="M171.63,218.1a3.879,3.879,0,0,1,4.012,4.012,4.1,4.1,0,0,1-4.13,4.209,3.893,3.893,0,0,1-4.012-3.973,4.082,4.082,0,0,1,4.13-4.248m0,7.513c1.495,0,2.675-1.337,2.675-3.3,0-2.085-1.219-3.54-2.793-3.54-1.495,0-2.635,1.337-2.635,3.3-.039,2.085,1.18,3.54,2.753,3.54" transform="translate(-104.33 -216.487)" fill="#8b7736"/>
      <path id="Path_117" data-name="Path 117" d="M193.031,222.766V225.2c0,.59.2.787.59.944v.157H191.3v-.157c.315-.118.551-.236.551-.865v-5.7a.848.848,0,0,0-.551-.944v-.157h5.192a.289.289,0,0,0,.236-.079h.079l-.157,1.77h-.118c0-.315-.079-.983-.433-.983h-3.107V222.1h2.124c.354,0,.472-.275.551-.826h.118v2.242h-.118c-.079-.433-.157-.747-.511-.747Z" transform="translate(-118.768 -216.669)" fill="#8b7736"/>
      <path id="Path_118" data-name="Path 118" d="M218.563,215.023v3.343H221.4c.354,0,.472-.393.59-.983h.118l-.2,2.753h-.118c-.039-.433-.118-.9-.393-.9h-2.832v3.3c0,.2.079.275.2.275h3.54c.669,0,1.1-.747,1.219-1.3h.118l-.393,2.163H216.4v-.236c.433-.157.708-.393.708-1.141v-6.8c0-.747-.236-.983-.708-1.18v-.2h6.687a.357.357,0,0,0,.275-.118h.079l-.2,2.124h-.118c-.039-.393-.118-1.18-.511-1.18h-4.051Z" transform="translate(-133.996 -214)" fill="#8b7736"/>
      <path id="Path_119" data-name="Path 119" d="M238.1,226.367v-.157c.354-.157.551-.354.551-.944v-5.625c0-.629-.2-.826-.551-.983V218.5h3.855a3.916,3.916,0,0,1,0,7.827H238.1Zm1.77-.944c0,.2.118.236.275.236h1.337c2.045,0,2.911-1.573,2.911-3.225,0-1.613-.865-3.225-2.911-3.225H239.87Z" transform="translate(-147.16 -216.73)" fill="#8b7736"/>
      <path id="Path_120" data-name="Path 120" d="M265.962,222.551c0,2.675-1.573,4.012-3.147,4.012-1.613,0-3.225-1.377-3.225-4.051v-2.871a.881.881,0,0,0-.59-.983V218.5h2.4v.157a.778.778,0,0,0-.551.865v2.832c0,2.281,1.062,3.461,2.2,3.461,1.062,0,2.124-1.062,2.124-3.225v-2.95a.9.9,0,0,0-.551-.983V218.5h1.927v.157c-.393.157-.59.315-.59.983Z" transform="translate(-159.839 -216.73)" fill="#8b7736"/>
      <path id="Path_121" data-name="Path 121" d="M284.366,225.673a2.6,2.6,0,0,0,2.557-1.77H287l-.118,1.613a4.93,4.93,0,0,1-2.714.865,4.091,4.091,0,1,1,0-8.181,5.924,5.924,0,0,1,2.517.59c.039,0,.079-.039.118-.079h.079l-.118,1.731h-.079a2.261,2.261,0,0,0-2.321-1.573,3.425,3.425,0,0,0,0,6.8" transform="translate(-172.579 -216.548)" fill="#8b7736"/>
      <path id="Path_122" data-name="Path 122" d="M305.054,224.954l-.472-1.062h-3.3l-.669,1.534c-.236.551.236.826.551.944v.157H298.8v-.157c.275-.079.669-.275,1.023-1.1l2.635-6.018c-.039-.236-.472-.393-.59-.393V218.7h1.691l2.911,6.647a1.658,1.658,0,0,0,1.023,1.023v.157h-2.832v-.157c.236-.118.747-.393.551-.9a1.946,1.946,0,0,0-.157-.511m-3.461-1.809h2.675L302.93,220Z" transform="translate(-183.985 -216.851)" fill="#8b7736"/>
      <path id="Path_123" data-name="Path 123" d="M324.181,226.27v.157H321.86v-.157a.776.776,0,0,0,.59-.865v-6.057h-1.77c-.669,0-.9.511-1.062.983H319.5l.157-1.731h6.8l.157,1.731H326.5c-.157-.511-.393-.983-1.062-.983h-1.77V225.4a.674.674,0,0,0,.511.865" transform="translate(-196.543 -216.791)" fill="#8b7736"/>
      <path id="Path_124" data-name="Path 124" d="M342.221,218.539v.157a.892.892,0,0,0-.59.983v5.7c0,.551.2.669.59.826v.157H339.9v-.157c.354-.118.551-.275.551-.826v-5.743a.9.9,0,0,0-.551-.983V218.5h2.321Z" transform="translate(-208.918 -216.73)" fill="#8b7736"/>
      <path id="Path_125" data-name="Path 125" d="M352.53,218.1a3.879,3.879,0,0,1,4.012,4.012,4.1,4.1,0,0,1-4.13,4.209,3.893,3.893,0,0,1-4.012-3.973,4.082,4.082,0,0,1,4.13-4.248m0,7.513c1.495,0,2.675-1.337,2.675-3.3,0-2.085-1.219-3.54-2.793-3.54-1.495,0-2.635,1.337-2.635,3.3,0,2.085,1.18,3.54,2.753,3.54" transform="translate(-214.075 -216.487)" fill="#8b7736"/>
      <path id="Path_126" data-name="Path 126" d="M379.195,226.367h-.826l-5.192-6.293v5.271a.85.85,0,0,0,.551.865v.157H371.8v-.157a.8.8,0,0,0,.59-.865v-5.861a.817.817,0,0,0-.59-.826V218.5h1.77l4.877,5.821v-4.8a.817.817,0,0,0-.551-.865V218.5h1.927v.157a.778.778,0,0,0-.551.865v6.844Z" transform="translate(-228.271 -216.73)" fill="#8b7736"/>
      <path id="Path_127" data-name="Path 127" d="M9.221,215.637a1.025,1.025,0,0,0-.59-1.18V214.3h2.4l2.517,7.552,2.439-7.552h2.36v.157a1,1,0,0,0-.629,1.141l1.416,6.293c.275,1.337.669,1.573.944,1.691v.2H17.52v-.2c.511-.118.551-.59.393-1.3l-1.495-6.372-2.6,7.867H12.761l-2.6-7.867L8.67,222.324c-.157.669-.157,1.1.354,1.259v.2H6.9v-.2c.354-.118.629-.393.9-1.495Z" transform="translate(-6.9 -214.182)" fill="#8b7736"/>
    </g>
  </g>
</svg>
